<svg xmlns="http://www.w3.org/2000/svg" width="40.786" height="38.109" viewBox="0 0 40.786 38.109"><defs><style>.a{fill:#1e81ce;}.b{fill:#e6e7e8;}.c{fill:#ff5023;}.d{fill:#787680;}.e{fill:#ff6243;}.f{fill:#d1d3d4;}.g{fill:#ff9811;}.h{fill:#5aaae7;}.i{fill:#3d9ae2;}.j{fill:#57565c;}.k{fill:#ed1c24;}.l{fill:#ee8700;}</style></defs><path class="a" d="M22.16,36.889l-.755-1.131,5.465-3.644a.68.68,0,0,1,.858.085l1.36,1.36-.961.961-.965-.965Z" transform="translate(-8.214 -12.966)"/><path class="b" d="M60.5,28.48v5.459l-2.7.238-.476-5.418Z" transform="translate(-19.718 -11.839)"/><path class="c" d="M60.729,36.51V47.434l-1.754.15L58.03,36.748Z" transform="translate(-19.942 -14.411)"/><path class="d" d="M47.615,51.747a4.079,4.079,0,1,1-4.419-3.7A4.079,4.079,0,0,1,47.615,51.747Z" transform="translate(-14 -18.099)"/><path class="e" d="M37.8,29.541l-.612,3.678a.68.68,0,0,0,.734.748l12.039-1.054.945,10.836-4.065.36-1.353.116a4.079,4.079,0,0,0-8.123.714l-1.353.116-1.353.116a1.36,1.36,0,0,1-1.475-1.23l-.122-1.36-.156-1.795,2.76-1.659-1.36-1.36,1.36-1.36L32.84,34.993a13.443,13.443,0,0,1,.36-1.339l2.556-6.206a2.715,2.715,0,0,1,2.277-1.679l14.01-1.224a2.092,2.092,0,0,1,.619.027v2.644l-3.175.279-10.462.918A1.36,1.36,0,0,0,37.8,29.541Z" transform="translate(-11.876 -10.575)"/><path class="f" d="M51.535,28.89l.476,5.418L39.972,35.361a.68.68,0,0,1-.734-.748l.612-3.678a1.36,1.36,0,0,1,1.224-1.128Z" transform="translate(-13.924 -11.97)"/><path class="g" d="M35.569,41.334l-1.36,1.36,1.36,1.36-2.76,1.659-.238-2.705a11.18,11.18,0,0,1,.17-3.086Z" transform="translate(-11.777 -15.503)"/><path class="b" d="M29.112,43.588a3.9,3.9,0,0,1,.048,1.38l-.19,1.346L25.6,45.838a.68.68,0,0,1-.578-.768l.19-1.346a.673.673,0,0,1,.768-.578Z" transform="translate(-9.372 -16.533)"/><path class="d" d="M16.48,48.1a4.079,4.079,0,1,1-4.609,3.467A4.079,4.079,0,0,1,16.48,48.1Z" transform="translate(-5.148 -18.109)"/><path class="h" d="M18.864,43.636l3.365.476-.564,4.038A1.367,1.367,0,0,1,20.128,49.3l-1.346-.19-1.346-.19a4.081,4.081,0,1,0-8.083-1.135L8.008,47.6,3.97,47.034,5.486,36.26l10.768,1.516,2.692.381a4.071,4.071,0,0,1,3.426,3.229l-3.127-.442a.673.673,0,0,0-.768.578l-.19,1.346A.68.68,0,0,0,18.864,43.636Z" transform="translate(-2.631 -14.331)"/><path class="b" d="M16.913,35.151l.054.088L6.2,33.724l.755-5.384,5.968.843.211-.129Z" transform="translate(-3.345 -11.794)"/><path class="f" d="M5.61,28.1l-.755,5.384L2,33.083V27.59Z" transform="translate(-2 -11.554)"/><path class="i" d="M2,35.67l2.855.4L3.339,46.845,2,46.655Z" transform="translate(-2 -14.142)"/><path class="i" d="M11.789,27.523l-.211.129L5.61,26.809,2,26.3V23.56l6.764.952A2.713,2.713,0,0,1,10.7,25.769Z" transform="translate(-2 -10.264)"/><path class="g" d="M18.039,23.438,16,21.4h3.4V18l3.4,3.4L26.2,18v3.4h4.079l-2.719,2.719H18.719Z" transform="translate(-6.483 -8.483)"/><path class="i" d="M20.684,52.253l-1.346-.19a4.081,4.081,0,1,0-8.083-1.135l-1.346-.19a5.457,5.457,0,0,1,5.384-4.677,5.733,5.733,0,0,1,.761.054A5.438,5.438,0,0,1,20.684,52.253Z" transform="translate(-4.533 -17.469)"/><path class="c" d="M48.328,50.992l-1.353.116a4.079,4.079,0,0,0-8.123.714l-1.353.116a5.418,5.418,0,0,1,4.942-5.887c.156-.014.319-.02.476-.02A5.45,5.45,0,0,1,48.328,50.992Z" transform="translate(-13.361 -17.459)"/><path class="g" d="M0,0H1.36V2.719H0Z" transform="translate(16.421 32.766) rotate(-82.008)"/><path class="i" d="M0,0H1.36V2.719H0Z" transform="translate(4.392 25.577) rotate(-82.008)"/><path class="j" d="M0,0H1.36V1.36H0Z" transform="translate(9.985 34.604) rotate(-82.008)"/><path class="k" d="M0,0H2.719V1.36H0Z" transform="translate(26.749 25.37) rotate(-4.992)"/><path class="j" d="M0,0H1.36V1.36H0Z" transform="translate(28.798 33.393) rotate(-4.992)"/><path class="g" d="M0,0H2.719V1.36H0Z" transform="translate(21.115 31.333) rotate(-4.992)"/><path class="l" d="M27.717,24.278l-.961-.961,1.559-1.559H25.876a.68.68,0,0,1-.68-.68V19.321l-2.238,2.238a.68.68,0,0,1-.961,0l-2.238-2.238v1.758a.68.68,0,0,1-.68.68H17.321l.879.879-.961.961L15.2,21.559a.68.68,0,0,1,.481-1.16H18.4V17.68a.68.68,0,0,1,1.16-.481l2.918,2.918L25.4,17.2a.68.68,0,0,1,1.16.481V20.4h3.4a.68.68,0,0,1,.481,1.16Z" transform="translate(-6.163 -8.163)"/><g transform="translate(15.159 0)"><path class="b" d="M25.66,12.8H24.3a2.23,2.23,0,0,1,.636-1.57.922.922,0,0,0,0-1.39,2.261,2.261,0,0,1,0-3.142.926.926,0,0,0,.316-.7h1.36a2.236,2.236,0,0,1-.635,1.571.923.923,0,0,0,0,1.392,2.258,2.258,0,0,1,0,3.141A.924.924,0,0,0,25.66,12.8Z" transform="translate(-24.3 -4.64)"/><path class="b" d="M31.66,10.8H30.3a2.23,2.23,0,0,1,.636-1.57.922.922,0,0,0,0-1.39,2.261,2.261,0,0,1,0-3.142.926.926,0,0,0,.316-.7h1.36a2.237,2.237,0,0,1-.635,1.571.923.923,0,0,0,0,1.392,2.258,2.258,0,0,1,0,3.141A.924.924,0,0,0,31.66,10.8Z" transform="translate(-26.221 -4)"/></g></svg>