<svg xmlns="http://www.w3.org/2000/svg" xmlns:xlink="http://www.w3.org/1999/xlink" width="98.133" height="85.745" viewBox="0 0 98.133 85.745"><defs><style>.a,.d,.g{fill:none;}.a{stroke:#00d764;stroke-width:0.802px;stroke-dasharray:2.406 2.406;}.b{fill:url(#a);}.c{fill:#3e47dd;}.d{stroke:#3e47dd;stroke-linecap:round;stroke-linejoin:round;stroke-width:1.203px;stroke-dasharray:0.008 1.704;}.e{fill:#fbc67a;}.f{stroke:none;}</style><linearGradient id="a" x1="0.5" x2="0.5" y2="1" gradientUnits="objectBoundingBox"><stop offset="0" stop-color="#00d764"/><stop offset="1" stop-color="#2698ea"/></linearGradient></defs><g transform="translate(1.133 0.872)"><g transform="translate(0 0.262)"><g class="a" transform="matrix(0.707, -0.707, 0.707, 0.707, 0, 41.738)"><rect class="f" width="59" height="59" rx="17.627"/><rect class="g" x="-0.401" y="-0.401" width="59.802" height="59.802" rx="18.027"/></g><rect class="b" width="48" height="48" rx="14.323" transform="matrix(0.707, -0.707, 0.707, 0.707, 8, 41.738)"/><g transform="translate(30 30.738)"><path class="c" d="M3.3,1.375a.826.826,0,0,1,.825.825V3.3a.826.826,0,0,1-.825.825H2.2A.826.826,0,0,1,1.375,3.3V2.2A.826.826,0,0,1,2.2,1.375ZM3.3,0H2.2A2.2,2.2,0,0,0,0,2.2V3.3A2.2,2.2,0,0,0,2.2,5.5H3.3A2.2,2.2,0,0,0,5.5,3.3V2.2A2.2,2.2,0,0,0,3.3,0Z" transform="translate(15.583 8.25)"/><path class="c" d="M3.3,1.375a.826.826,0,0,1,.825.825V3.3a.826.826,0,0,1-.825.825H2.2A.826.826,0,0,1,1.375,3.3V2.2A.826.826,0,0,1,2.2,1.375ZM3.3,0H2.2A2.2,2.2,0,0,0,0,2.2V3.3A2.2,2.2,0,0,0,2.2,5.5H3.3A2.2,2.2,0,0,0,5.5,3.3V2.2A2.2,2.2,0,0,0,3.3,0Z" transform="translate(0.917 8.25)"/><path class="c" d="M3.3,1.375a.826.826,0,0,1,.825.825V3.3a.826.826,0,0,1-.825.825H2.2A.826.826,0,0,1,1.375,3.3V2.2A.826.826,0,0,1,2.2,1.375ZM3.3,0H2.2A2.2,2.2,0,0,0,0,2.2V3.3A2.2,2.2,0,0,0,2.2,5.5H3.3A2.2,2.2,0,0,0,5.5,3.3V2.2A2.2,2.2,0,0,0,3.3,0Z" transform="translate(8.25 0.916)"/><path class="c" d="M3.3,1.375a.826.826,0,0,1,.825.825V3.3a.826.826,0,0,1-.825.825H2.2A.826.826,0,0,1,1.375,3.3V2.2A.826.826,0,0,1,2.2,1.375ZM3.3,0H2.2A2.2,2.2,0,0,0,0,2.2V3.3A2.2,2.2,0,0,0,2.2,5.5H3.3A2.2,2.2,0,0,0,5.5,3.3V2.2A2.2,2.2,0,0,0,3.3,0Z" transform="translate(8.25 15.582)"/><path class="d" d="M0,1.928A7.359,7.359,0,0,1,2.2,0" transform="translate(5.17 4.629)"/><path class="d" d="M2.2,0A7.359,7.359,0,0,1,0,1.928" transform="translate(14.627 15.442)"/><path class="d" d="M1.928,2.2A7.359,7.359,0,0,1,0,0" transform="translate(4.63 14.627)"/><path class="d" d="M0,0A7.359,7.359,0,0,1,1.928,2.2" transform="translate(15.442 5.169)"/></g></g><g transform="translate(3)"><path class="e" d="M1.965,1.554a3.351,3.351,0,0,1,4.069,0l.108.082A3.351,3.351,0,0,1,7.31,5.289L7.2,5.638A3.351,3.351,0,0,1,4,8H4A3.351,3.351,0,0,1,.8,5.638L.69,5.289A3.351,3.351,0,0,1,1.858,1.637Z" transform="translate(86 38)"/><path class="e" d="M1.474,1.166a2.514,2.514,0,0,1,3.052,0l.081.062a2.514,2.514,0,0,1,.876,2.74L5.4,4.229A2.514,2.514,0,0,1,3,6H3A2.514,2.514,0,0,1,.6,4.229L.518,3.967a2.514,2.514,0,0,1,.876-2.74Z" transform="translate(65 68)"/><path class="e" d="M1.965,1.554a3.351,3.351,0,0,1,4.069,0l.108.082A3.351,3.351,0,0,1,7.31,5.289L7.2,5.638A3.351,3.351,0,0,1,4,8H4A3.351,3.351,0,0,1,.8,5.638L.69,5.289A3.351,3.351,0,0,1,1.858,1.637Z" transform="translate(0 68)"/><path class="e" d="M1.965,1.554a3.351,3.351,0,0,1,4.069,0l.108.082A3.351,3.351,0,0,1,7.31,5.289L7.2,5.638A3.351,3.351,0,0,1,4,8H4A3.351,3.351,0,0,1,.8,5.638L.69,5.289A3.351,3.351,0,0,1,1.858,1.637Z" transform="translate(2 9)"/><path class="e" d="M1.965,1.554a3.351,3.351,0,0,1,4.069,0l.108.082A3.351,3.351,0,0,1,7.31,5.289L7.2,5.638A3.351,3.351,0,0,1,4,8H4A3.351,3.351,0,0,1,.8,5.638L.69,5.289A3.351,3.351,0,0,1,1.858,1.637Z" transform="translate(65)"/></g></g></svg>