<svg height="496pt" viewBox="0 -20 496 496" width="496pt" xmlns="http://www.w3.org/2000/svg"><path d="m176.160156 40c13.199219 0 24 10.71875 24 24s-10.800781 24-24 24c-13.28125 0-24-10.71875-24-24s10.710938-24 24-24zm0 0" fill="#ffce54"/><path d="m64 32 112-32h.160156l112 32 .078125.078125 31.761719 47.921875-23.839844 31.984375h-240.160156l-23.839844-31.984375zm136.160156 32c0-13.28125-10.800781-24-24-24-13.28125 0-24 10.71875-24 24s10.71875 24 24 24c13.199219 0 24-10.71875 24-24zm0 0" fill="#5d9cec"/><path d="m56.160156 111.984375h240v32h-240zm0 0" fill="#545c66"/><path d="m56.160156 143.984375h240s-.160156.640625-.640625 1.839844c-3.199219 7.902343-22 38.230469-119.511719 38.230469-97.769531 0-116.160156-30.488282-119.28125-38.328126-.414062-1.101562-.566406-1.742187-.566406-1.742187zm0 0" fill="#656d78"/><path d="m56.71875 145.734375c3.121094 7.839844 21.511719 38.328125 119.28125 38.328125 97.511719 0 116.3125-30.328125 119.511719-38.230469l.488281.230469v45.921875c0 46-25.921875 86-64 106.160156-16.71875 8.800781-35.769531 13.839844-56 13.839844s-39.28125-5.046875-56-13.839844c-38.078125-20.160156-64-60.160156-64-106.160156v-45.921875zm0 0" fill="#eac6bb"/><path d="m295.511719 145.824219c-1.558594 3.886719-6.9375 13.183593-23.542969 21.640625v24.519531c0 46-25.90625 86-64 106.160156-13.359375 7.03125-28.214844 11.609375-43.984375 13.183594 3.953125.390625 7.953125.65625 12.015625.65625 20.230469 0 39.28125-5.046875 56-13.839844 38.078125-20.160156 64-60.160156 64-106.160156v-45.921875zm0 0" fill="#d3b1a9"/><path d="m232 298.144531v29.832031l-24 16-32-8-32 8-24-16v-29.832031c16.71875 8.800781 35.769531 13.839844 56 13.839844s39.28125-5.046875 56-13.839844zm0 0" fill="#87bcf4"/><path d="m168.160156 367.96875-16 88h-144.160156c-4.40625 0-8-3.59375-8-8v-56c0-35.359375 28.640625-64 64-64h56l24 16zm0 0" fill="#5d9cec"/><path d="m352 391.96875v56c0 4.40625-3.511719 8-8 8h-144l-15.839844-88 23.839844-24 24-16h48c35.359375 0 72 28.640625 72 64zm-71.921875 7.917969c0-8.796875-7.199219-16-16-16-8.871094 0-16 7.203125-16 16 0 8.800781 7.128906 16 16 16 8.792969 0 16-7.199219 16-16zm0 0" fill="#5d9cec"/><path d="m280 327.96875h-24.03125c35.359375 0 72 28.640625 72 64v56c0 4.40625-3.511719 8-8 8h24.03125c4.488281 0 8-3.59375 8-8v-56c0-35.359375-36.640625-64-72-64zm0 0" fill="#4a89dc"/><g fill="#ffce54"><path d="m264.078125 383.886719c8.800781 0 16 7.203125 16 16 0 8.800781-7.199219 16-16 16-8.871094 0-16-7.199219-16-16 0-8.796875 7.121094-16 16-16zm0 0"/><path d="m304.015625 327.96875h-48.015625c-4.425781 0-8-3.578125-8-8 0-4.425781 3.574219-8 8-8h48.015625c4.425781 0 8 3.574219 8 8 0 4.421875-3.574219 8-8 8zm0 0"/><path d="m96.015625 327.96875h-48.03125c-4.425781 0-8-3.578125-8-8 0-4.425781 3.574219-8 8-8h48.03125c4.425781 0 8 3.574219 8 8 0 4.421875-3.574219 8-8 8zm0 0"/></g><path d="m80.984375 67.59375c1.40625 2.796875 4.214844 4.40625 7.144531 4.40625 1.214844 0 2.4375-.28125 3.589844-.855469 3.953125-1.984375 5.527344-6.800781 3.546875-10.753906l-16.457031-32.621094-14.808594 4.230469-.542969.824219zm0 0" fill="#4a89dc"/><path d="m288.230469 32.078125-.078125-.078125-14.800782-4.230469-16.457031 32.621094c-1.984375 3.953125-.40625 8.769531 3.546875 10.753906 1.160156.574219 2.375.855469 3.589844.855469 2.921875 0 5.738281-1.609375 7.144531-4.40625l17.542969-34.785156zm0 0" fill="#4a89dc"/><path d="m208 343.96875-20 24h-24.015625l-19.984375-24 32-8zm0 0" fill="#656d78"/><path d="m163.984375 367.96875h24.015625l12 88h-47.839844zm0 0" fill="#545c66"/><path d="m496 62.855469v24.082031c-13.28125 0-24-10.800781-24-24.082031zm0 0" fill="#8cc152"/><path d="m368 62.855469h24c0 13.28125-10.71875 24-24 24.082031zm0 0" fill="#8cc152"/><path d="m368 246.9375c13.28125.078125 24 10.71875 24 24h-24zm0 0" fill="#8cc152"/><path d="m472 270.9375h-104v48h128v-48zm0 0" fill="#a0d468"/><path d="m472 270.9375c0-13.28125 10.71875-24 24-24v24zm0 0" fill="#8cc152"/><path d="m496 86.9375v160c-13.28125 0-24 10.71875-24 24h-80c0-13.28125-10.71875-23.921875-24-24v-160c13.28125-.082031 24-10.800781 24-24.082031h80c0 13.289062 10.71875 24.082031 24 24.082031zm-32 80c0-17.671875-14.390625-32-32-32-17.671875 0-32 14.328125-32 32 0 17.6875 14.328125 32 32 32 17.609375 0 32-14.3125 32-32zm0 0" fill="#a0d468"/><path d="m432 134.9375c17.609375 0 32 14.328125 32 32 0 17.6875-14.390625 32-32 32-17.671875 0-32-14.3125-32-32 0-17.671875 14.328125-32 32-32zm0 0" fill="#8cc152"/><path d="m440 334.921875c-4.425781 0-8 3.574219-8 8v48h-36.6875l2.34375-2.347656c3.128906-3.125 3.128906-8.183594 0-11.308594-3.128906-3.128906-8.183594-3.128906-11.3125 0l-16 15.980469c-.734375.738281-1.328125 1.625-1.734375 2.609375-.816406 1.953125-.816406 4.160156 0 6.113281.40625.984375 1 1.871094 1.734375 2.605469l16 16c1.558594 1.5625 3.609375 2.347656 5.65625 2.347656s4.097656-.785156 5.65625-2.347656c3.128906-3.125 3.128906-8.183594 0-11.308594l-2.34375-2.34375h44.6875c4.425781 0 8-3.578125 8-8v-56c0-4.425781-3.574219-8-8-8zm0 0" fill="#ccd1d9"/><path d="m368 270.9375h128v8h-128zm0 0" fill="#8cc152"/><path d="m368 286.9375h128v8h-128zm0 0" fill="#8cc152"/><path d="m368 302.9375h128v8h-128zm0 0" fill="#8cc152"/></svg>