<svg xmlns="http://www.w3.org/2000/svg" width="16.747" height="22.387" viewBox="0 0 16.747 22.387"><defs><style>.a{fill:#407093;}.b{fill:#365e7d;}.c{fill:#bed8fb;}.d{fill:#9dc6fb;}.e{fill:#dd636e;}.f{fill:#da4a54;}.g{fill:#d82e3d;}</style></defs><g transform="translate(-64.499)"><path class="a" d="M83.653,430.485H67.919a.373.373,0,0,1-.373-.373V427.4a.644.644,0,0,1,.644-.644H83.382a.644.644,0,0,1,.644.644v2.71a.373.373,0,0,1-.373.373Z" transform="translate(-2.914 -408.098)"/><path class="b" d="M408.3,426.757h-.979a.644.644,0,0,1,.644.644v3.083h.606a.373.373,0,0,0,.373-.373V427.4A.644.644,0,0,0,408.3,426.757Z" transform="translate(-327.834 -408.097)"/><path class="c" d="M111.243,367.354H98.7a.632.632,0,0,0-.632.632v1.965h13.811v-1.965A.632.632,0,0,0,111.243,367.354Z" transform="translate(-32.098 -351.292)"/><path class="d" d="M391.029,367.354v2.6h1v-1.965a.632.632,0,0,0-.632-.632Z" transform="translate(-312.253 -351.292)"/><path class="e" d="M137.446,105.146H126.085l1.059-10a2.224,2.224,0,0,1,2.211-1.989h4.82a2.224,2.224,0,0,1,2.211,1.989Z" transform="translate(-58.893 -89.084)"/><path class="f" d="M289.771,95.145a2.224,2.224,0,0,0-2.211-1.989h-1.077a2.223,2.223,0,0,1,2.211,1.989l1.059,10h1.077Z" transform="translate(-212.278 -89.083)"/><path class="f" d="M212.3,275.76h-4.188v-2.094a2.094,2.094,0,0,1,4.188,0v2.094Z" transform="translate(-137.331 -259.698)"/><path class="g" d="M243.812,271.571a2.1,2.1,0,0,0-.557.076,2.1,2.1,0,0,1,1.537,2.018v2.094h1.115v-2.094A2.094,2.094,0,0,0,243.812,271.571Z" transform="translate(-170.94 -259.697)"/><g transform="translate(70.571 20.342)"><path class="b" d="M207.632,465.907h-3.938a.333.333,0,0,1,0-.666h3.938a.333.333,0,1,1,0,.666Z" transform="translate(-203.362 -465.241)"/></g><g transform="translate(64.499)"><g transform="translate(8.04)"><path class="f" d="M248.721,2.889a.333.333,0,0,1-.333-.333V.333a.333.333,0,0,1,.666,0V2.557A.333.333,0,0,1,248.721,2.889Z" transform="translate(-248.388)"/></g><g transform="translate(2.86 0.562)"><path class="f" d="M131.475,15.355a.332.332,0,0,1-.276-.147l-1.244-1.844a.333.333,0,1,1,.552-.372l1.244,1.844a.333.333,0,0,1-.276.519Z" transform="translate(-129.898 -12.846)"/></g><g transform="translate(0 3.665)"><path class="f" d="M66.835,85.445a.332.332,0,0,1-.144-.033l-2-.966a.333.333,0,0,1,.289-.6l2,.966a.333.333,0,0,1-.145.633Z" transform="translate(-64.499 -83.813)"/></g><g transform="translate(11.978 0.562)"><path class="f" d="M338.771,15.354a.333.333,0,0,1-.276-.519l1.243-1.844a.333.333,0,1,1,.552.372l-1.244,1.844A.333.333,0,0,1,338.771,15.354Z" transform="translate(-338.438 -12.845)"/></g><g transform="translate(14.078 3.665)"><path class="f" d="M386.794,85.446a.333.333,0,0,1-.145-.633l2-.966a.333.333,0,1,1,.289.6l-2,.966A.332.332,0,0,1,386.794,85.446Z" transform="translate(-386.461 -83.814)"/></g></g></g></svg>