<svg xmlns="http://www.w3.org/2000/svg" width="53" height="62" viewBox="0 0 53 62">
  <g id="Group_9688" data-name="Group 9688" transform="translate(-853 -913)">
    <g id="Group_9680" data-name="Group 9680" transform="translate(-172 395)">
      <g id="Union_7" data-name="Union 7" transform="translate(1025 518)" fill="#ff5927">
        <path d="M 26.50047492980957 58.0742073059082 L 22.29961967468262 50.9788818359375 L 21.86086082458496 50.23781967163086 L 21.02098083496094 50.04734039306641 C 18.33597946166992 49.43841171264648 15.78969955444336 48.38780975341797 13.45287990570068 46.92475128173828 C 11.15775012969971 45.48778915405273 9.128749847412109 43.69433975219727 7.422220230102539 41.59421920776367 C 5.701710224151611 39.47689056396484 4.361440181732178 37.11149978637695 3.438640117645264 34.56377029418945 C 2.48403000831604 31.92820930480957 2 29.15744972229004 2 26.32846069335938 C 2 23.04487037658691 2.646909952163696 19.86043930053711 3.922749996185303 16.8636302947998 C 5.15585994720459 13.96720027923584 6.921800136566162 11.36530017852783 9.171520233154297 9.130220413208008 C 11.42212009429932 6.89424991607666 14.0426197052002 5.138869762420654 16.96023941040039 3.912830114364624 C 19.98072052001953 2.643569946289062 23.1905403137207 2 26.50052070617676 2 C 29.81040954589844 2 33.02011108398438 2.643569946289062 36.04047012329102 3.912820100784302 C 38.95796966552734 5.138850212097168 41.57835006713867 6.894219875335693 43.82884979248047 9.130189895629883 C 46.07844924926758 11.36526012420654 47.84429931640625 13.96716022491455 49.07735061645508 16.86359977722168 C 50.35313034057617 19.86041069030762 51 23.04484939575195 51 26.32846069335938 C 51 29.157470703125 50.51599884033203 31.9282398223877 49.56143951416016 34.56380081176758 C 48.63867950439453 37.11154174804688 47.29846954345703 39.4769287109375 45.57804107666016 41.5942497253418 C 43.87157821655273 43.69437026977539 41.84265899658203 45.48781967163086 39.5476188659668 46.92475891113281 C 37.21086883544922 48.38782119750977 34.6646614074707 49.43840026855469 31.9797191619873 50.04732894897461 L 31.13981056213379 50.23781967163086 L 30.70105934143066 50.97891998291016 L 26.50047492980957 58.0742073059082 Z" stroke="none"/>
        <path d="M 26.50041961669922 54.1484260559082 L 29.85754203796387 48.47783660888672 L 31.5373649597168 48.09687042236328 C 34.0025520324707 47.53777694702148 36.34050750732422 46.57309341430664 38.48627090454102 45.22961044311523 C 40.59455108642578 43.90958786010742 42.45833969116211 42.26214218139648 44.02584838867188 40.33301162719727 C 45.60483551025391 38.38976287841797 46.83459854125977 36.21957778930664 47.68097686767578 33.88271713256836 C 48.55621337890625 31.46616554260254 49 28.92454147338867 49 26.32845878601074 C 49 23.31557655334473 48.40689468383789 20.39470672607422 47.23715209960938 17.64698791503906 C 46.10573959350586 14.98928260803223 44.4847526550293 12.60116481781006 42.41921234130859 10.54897689819336 C 40.35189437866211 8.494999885559082 37.94508361816406 6.882623672485352 35.2656364440918 5.756635189056396 C 32.49190521240234 4.591012001037598 29.54289436340332 4 26.50053024291992 4 C 23.45804786682129 4 20.5089168548584 4.591023445129395 17.73504638671875 5.756647109985352 C 15.05547046661377 6.882658958435059 12.64854145050049 8.495046615600586 10.58110618591309 10.54903507232666 C 8.515470504760742 12.60124683380127 6.894400119781494 14.98936462402344 5.762929439544678 17.64705848693848 C 4.593129634857178 20.3947639465332 4 23.31561088562012 4 26.32845878601074 C 4 28.92451858520508 4.44379997253418 31.46611785888672 5.319082260131836 33.88265991210938 C 6.165505886077881 36.21950531005859 7.395317554473877 38.38969421386719 8.974376678466797 40.33295440673828 C 10.54196453094482 42.26208114624023 12.40582370758057 43.90955352783203 14.51420021057129 45.22958755493164 C 16.66004753112793 46.57308197021484 18.99806976318359 47.53777694702148 21.46331787109375 48.09687042236328 L 23.14308166503906 48.47783660888672 L 26.50041961669922 54.1484260559082 M 26.50053024291992 62 L 20.57862281799316 51.99781036376953 C 8.793929100036621 49.32514190673828 0 38.84738922119141 0 26.32845878601074 C 0 11.78757667541504 11.86495304107666 0 26.50053024291992 0 C 41.1357421875 0 53 11.78757667541504 53 26.32845878601074 C 53 38.84738922119141 44.20658874511719 49.32514190673828 32.42206954956055 51.99779891967773 L 26.50053024291992 62 Z" stroke="none" fill="#fff"/>
      </g>
    </g>
    <g id="Group_9687" data-name="Group 9687" transform="translate(872.027 923.608)">
      <g id="Group_9443" data-name="Group 9443" transform="translate(0 0)">
        <path id="Path_1983" data-name="Path 1983" d="M13.8,25.133c-1.593,0-2.245-1.129-1.448-2.509L17.8,13.189c.8-1.38,2.1-1.38,2.9,0l5.448,9.436c.8,1.38.145,2.509-1.448,2.509Z" transform="translate(-12.015 -12.154)" fill="#fff"/>
      </g>
      <g id="Group_9444" data-name="Group 9444" transform="translate(6.512 3.565)">
        <path id="Path_1984" data-name="Path 1984" d="M31.448,25.621a.724.724,0,0,1-.724.724h0A.724.724,0,0,1,30,25.621v-2.9A.724.724,0,0,1,30.724,22h0a.724.724,0,0,1,.724.724Z" transform="translate(-30 -22)" fill="#e2c800"/>
      </g>
      <g id="Group_9445" data-name="Group 9445" transform="translate(6.512 9.359)">
        <path id="Path_1985" data-name="Path 1985" d="M31.448,38.724a.724.724,0,0,1-.724.724h0A.724.724,0,0,1,30,38.724h0A.724.724,0,0,1,30.724,38h0a.724.724,0,0,1,.724.724Z" transform="translate(-30 -38)" fill="#e2c800"/>
      </g>
    </g>
    <g id="_352315_car_directions_icon" data-name="352315_car_directions_icon" transform="translate(868.369 932.971)">
      <path id="Path_3940" data-name="Path 3940" d="M20.767,10.937A1.4,1.4,0,0,0,19.45,10H9.247a1.4,1.4,0,0,0-1.317.937L6,16.493v7.421a.93.93,0,0,0,.928.928h.928a.927.927,0,0,0,.928-.928v-.928H19.914v.928a.93.93,0,0,0,.928.928h.928a.927.927,0,0,0,.928-.928V16.493ZM9.247,20.2a1.391,1.391,0,1,1,1.391-1.391A1.39,1.39,0,0,1,9.247,20.2Zm10.2,0a1.391,1.391,0,1,1,1.391-1.391A1.39,1.39,0,0,1,19.45,20.2ZM7.855,15.566l1.391-4.174h10.2l1.391,4.174Z" transform="translate(-3.217 -5.362)" fill="#fff"/>
      <path id="Path_3941" data-name="Path 3941" d="M0,0H22.262V22.262H0Z" transform="translate(0 0)" fill="none"/>
    </g>
  </g>
</svg>
