<svg xmlns="http://www.w3.org/2000/svg" xmlns:xlink="http://www.w3.org/1999/xlink" width="98.134" height="85.706" viewBox="0 0 98.134 85.706"><defs><style>.a,.f{fill:none;}.a{stroke:#00d764;stroke-width:0.802px;stroke-dasharray:2.406 2.406;}.b{fill:url(#a);}.c{fill:#3e47dd;}.d{fill:#fbc67a;}.e{stroke:none;}</style><linearGradient id="a" x1="0.5" x2="0.5" y2="1" gradientUnits="objectBoundingBox"><stop offset="0" stop-color="#00d764"/><stop offset="1" stop-color="#2698ea"/></linearGradient></defs><g transform="translate(1.134 0.906)"><g transform="translate(0 0.333)"><g class="a" transform="translate(0 41.667) rotate(-45)"><rect class="e" width="59.074" height="58.926" rx="17.626"/><rect class="f" x="-0.401" y="-0.401" width="59.876" height="59.727" rx="18.027"/></g><rect class="b" width="48.061" height="47.939" rx="14.323" transform="translate(8 41.667) rotate(-45)"/><g transform="translate(29.5 26.667)"><path class="c" d="M22.25,24H1.75A1.752,1.752,0,0,1,0,22.25v-2.5A1.752,1.752,0,0,1,1.75,18h20.5A1.752,1.752,0,0,1,24,19.75v2.5A1.752,1.752,0,0,1,22.25,24ZM1.75,19.5a.25.25,0,0,0-.25.25v2.5a.25.25,0,0,0,.25.25h20.5a.25.25,0,0,0,.25-.25v-2.5a.25.25,0,0,0-.25-.25Z"/><path class="c" d="M18.25,19.25a.75.75,0,0,1-.75-.75V14a5.5,5.5,0,0,0-11,0v4.5a.75.75,0,0,1-1.5,0V14a7,7,0,0,1,14,0v4.5A.75.75,0,0,1,18.25,19.25Z"/><path class="c" d="M8.75,14.75A.75.75,0,0,1,8,14a4,4,0,0,1,4-4,.75.75,0,0,1,0,1.5A2.5,2.5,0,0,0,9.5,14,.75.75,0,0,1,8.75,14.75Z"/><path class="c" d="M12,5a.75.75,0,0,1-.75-.75V.75a.75.75,0,0,1,1.5,0v3.5A.75.75,0,0,1,12,5Z"/><path class="c" d="M17.75,7a.751.751,0,0,1-.53-1.281l2.475-2.475a.75.75,0,0,1,1.061,1.061L18.28,6.78A.744.744,0,0,1,17.75,7Z"/><path class="c" d="M6.25,7a.744.744,0,0,1-.53-.22L3.245,4.305A.75.75,0,0,1,4.306,3.244L6.78,5.72A.749.749,0,0,1,6.25,7Z"/><path class="c" d="M2.25,12.75H.75a.75.75,0,0,1,0-1.5h1.5a.75.75,0,0,1,0,1.5Z"/><path class="c" d="M23.25,12.75h-1.5a.75.75,0,0,1,0-1.5h1.5a.75.75,0,0,1,0,1.5Z"/></g></g><g transform="translate(3)"><path class="d" d="M1.965,1.554a3.351,3.351,0,0,1,4.069,0l.108.082A3.351,3.351,0,0,1,7.31,5.289L7.2,5.638A3.351,3.351,0,0,1,4,8H4A3.351,3.351,0,0,1,.8,5.638L.69,5.289A3.351,3.351,0,0,1,1.858,1.637Z" transform="translate(86 38)"/><path class="d" d="M1.474,1.166a2.514,2.514,0,0,1,3.052,0l.081.062a2.514,2.514,0,0,1,.876,2.74L5.4,4.229A2.514,2.514,0,0,1,3,6H3A2.514,2.514,0,0,1,.6,4.229L.518,3.967a2.514,2.514,0,0,1,.876-2.74Z" transform="translate(65 68)"/><path class="d" d="M1.965,1.554a3.351,3.351,0,0,1,4.069,0l.108.082A3.351,3.351,0,0,1,7.31,5.289L7.2,5.638A3.351,3.351,0,0,1,4,8H4A3.351,3.351,0,0,1,.8,5.638L.69,5.289A3.351,3.351,0,0,1,1.858,1.637Z" transform="translate(0 68)"/><path class="d" d="M1.965,1.554a3.351,3.351,0,0,1,4.069,0l.108.082A3.351,3.351,0,0,1,7.31,5.289L7.2,5.638A3.351,3.351,0,0,1,4,8H4A3.351,3.351,0,0,1,.8,5.638L.69,5.289A3.351,3.351,0,0,1,1.858,1.637Z" transform="translate(2 9)"/><path class="d" d="M1.965,1.554a3.351,3.351,0,0,1,4.069,0l.108.082A3.351,3.351,0,0,1,7.31,5.289L7.2,5.638A3.351,3.351,0,0,1,4,8H4A3.351,3.351,0,0,1,.8,5.638L.69,5.289A3.351,3.351,0,0,1,1.858,1.637Z" transform="translate(65)"/></g></g></svg>