<?xml version="1.0" encoding="utf-8"?>
<!-- Generator: Adobe Illustrator 25.0.1, SVG Export Plug-In . SVG Version: 6.00 Build 0)  -->
<svg version="1.1" xmlns="http://www.w3.org/2000/svg" xmlns:xlink="http://www.w3.org/1999/xlink" x="0px" y="0px"
	 viewBox="0 0 1306.8 500" style="enable-background:new 0 0 1306.8 500;" xml:space="preserve">
<style type="text/css">
	.st0{fill:#EEEEEE;}
	.st1{fill:#7A7A7A;}
	.st2{fill:#D13232;}
	.st3{fill:#E4E6E7;}
	.st4{fill:#98AFBF;}
	.st5{fill:#95AEC1;}
	.st6{fill:#9BB4C8;}
	.st7{fill:#9EB6C9;}
	.st8{fill:#3E7EB3;}
	.st9{fill:#3E80AC;}
	.st10{clip-path:url(#SVGID_10_);}
	.st11{clip-path:url(#SVGID_13_);enable-background:new    ;}
	.st12{clip-path:url(#SVGID_15_);}
	.st13{clip-path:url(#SVGID_17_);}
	.st14{clip-path:url(#SVGID_21_);}
	.st15{clip-path:url(#SVGID_23_);}
	.st16{clip-path:url(#SVGID_27_);}
	.st17{filter:url(#Adobe_OpacityMaskFilter);}
	.st18{clip-path:url(#SVGID_29_);}
	.st19{clip-path:url(#SVGID_29_);mask:url(#SVGID_30_);}
	.st20{filter:url(#Adobe_OpacityMaskFilter_1_);}
	.st21{enable-background:new    ;}
	.st22{clip-path:url(#SVGID_34_);}
	.st23{clip-path:url(#SVGID_38_);}
	.st24{filter:url(#Adobe_OpacityMaskFilter_2_);}
	.st25{clip-path:url(#SVGID_40_);}
	.st26{opacity:0.4957;clip-path:url(#SVGID_44_);enable-background:new    ;}
	.st27{clip-path:url(#SVGID_46_);}
	.st28{clip-path:url(#SVGID_48_);}
	.st29{clip-path:url(#SVGID_50_);enable-background:new    ;}
	.st30{clip-path:url(#SVGID_52_);}
	.st31{clip-path:url(#SVGID_54_);}
	.st32{fill:none;stroke:#666666;stroke-width:4.7447;stroke-miterlimit:10;}
	.st33{clip-path:url(#SVGID_59_);}
	.st34{clip-path:url(#SVGID_61_);enable-background:new    ;}
	.st35{clip-path:url(#SVGID_63_);}
	.st36{clip-path:url(#SVGID_65_);}
	.st37{clip-path:url(#SVGID_69_);}
	.st38{clip-path:url(#SVGID_71_);}
	.st39{clip-path:url(#SVGID_75_);}
	.st40{filter:url(#Adobe_OpacityMaskFilter_3_);}
	.st41{clip-path:url(#SVGID_77_);}
	.st42{clip-path:url(#SVGID_77_);mask:url(#SVGID_78_);}
	.st43{filter:url(#Adobe_OpacityMaskFilter_4_);}
	.st44{clip-path:url(#SVGID_82_);}
	.st45{clip-path:url(#SVGID_86_);}
	.st46{filter:url(#Adobe_OpacityMaskFilter_5_);}
	.st47{clip-path:url(#SVGID_88_);}
	.st48{opacity:0.4957;clip-path:url(#SVGID_92_);enable-background:new    ;}
	.st49{clip-path:url(#SVGID_94_);}
	.st50{clip-path:url(#SVGID_96_);}
	.st51{clip-path:url(#SVGID_98_);enable-background:new    ;}
	.st52{clip-path:url(#SVGID_100_);}
	.st53{clip-path:url(#SVGID_102_);}
	.st54{fill:#17517B;}
	.st55{fill:#FF0000;}
	.st56{fill:#B2D4A3;}
	.st57{fill:#C0DBB3;}
	.st58{fill:#ECEDEE;}
	.st59{fill:#FFFFFF;}
	.st60{fill:#2BBB94;}
	.st61{fill:#454545;}
	.st62{fill:#D1D3D4;}
	.st63{clip-path:url(#SVGID_107_);}
	.st64{clip-path:url(#SVGID_109_);}
	.st65{clip-path:url(#SVGID_112_);}
	.st66{clip-path:url(#SVGID_114_);}
	.st67{clip-path:url(#SVGID_116_);}
	.st68{clip-path:url(#SVGID_117_);}
</style>
<g id="Back">
</g>
<g id="shadow">
</g>
<g id="business_card">
</g>
<g id="LOGO_HERE">
	<g>
		<g>
			<g>
				<path class="st9" d="M351.5,79.9v70.9h-29.1V79.9c0-9.2-7.4-16.6-16.6-16.6h-6.3c-13.2,0-25.5,6.3-33.1,16.8
					c12.2-17.8,32.8-29.4,56-29.4c7.3,0,14.4,1.2,21,3.3C348.5,61.3,351.5,70.2,351.5,79.9z"/>
				<path class="st9" d="M322.4,395.8h29.1V445c0,11.5-9.4,20.9-20.9,20.9H108.4c-60,0-109.1-49.1-109.1-109.1v-168
					c0-1.4,0.1-2.7,0.4-4c12.7,5.9,23.5,15.3,31.2,27.2l-2.5-2.6v139.3c0,48.7,39.5,88.3,88.3,88.3h205.7V395.8z"/>
			</g>
			<path class="st2" d="M343.4,53.9c-6.6-2.2-13.7-3.3-21-3.3c-24.2,0-45.4,12.6-57.4,31.6c-1.5,2.3-2.8,4.6-4,7.1
				c0,0-0.1,0.1-0.1,0.2l-24.1,44.2L148.1,296c-3.2,5.9-9,9.9-15.7,10.7c-6.6,0.9-13.3-1.5-17.9-6.4l-39.8-42.1l-43.9-46.4
				c-7.7-11.9-18.5-21.3-31.2-27.2c1-5.5,4.2-10.2,8.8-13.3c1.2-0.9,11.8-6.5,26.9,2.9l79.3,54.3c7.3,5,17.3,3,22.1-4.4L237.9,70.7
				c6.2-11.3,15.1-20.4,25.7-26.7c10.7-6.3,23-9.8,35.8-9.8h6.3c14.2,0,27,6.5,35.4,16.8C341.9,51.9,342.7,52.9,343.4,53.9z"/>
		</g>
		<g>
			<path class="st2" d="M89.6,150l26,21.2l23-28.3c4.4-5.4,7-11.6,7.9-18c0.9-6.6,0-13.4-2.6-19.6c-1.2-2.7-2.6-5.3-4.4-7.6
				c-1.7-2.3-3.8-4.4-6.1-6.3c-7.8-6.4-17.5-9-26.8-8s-18.3,5.5-24.6,13.3c-1.9,2.4-3.5,4.9-4.7,7.5c-1.3,2.7-2.2,5.5-2.8,8.3
				c-1.2,6.1-0.9,12.5,1,18.4c1.8,5.7,5,11,9.5,15.3L89.6,150L89.6,150z M93.8,177l-21-17.1l0,0c-0.1-0.1-0.2-0.1-0.3-0.2
				c-7-6.6-11.9-14.7-14.6-23.3c-2.8-8.9-3.3-18.4-1.5-27.5c0.9-4.2,2.2-8.5,4.2-12.5c1.9-4,4.2-7.7,7-11.2c9.6-11.8,23-18.6,37-20
				c14-1.4,28.5,2.4,40.3,12c3.5,2.8,6.5,6,9.2,9.5c2.7,3.6,4.9,7.4,6.6,11.4c4,9.2,5.3,19.4,3.9,29.3c-1.3,9.6-5.2,19-11.8,27
				l-31.6,38.9c-1.6,2-4.6,2.3-6.6,0.7L93.8,177L93.8,177z"/>
		</g>
		<g>
			<path class="st9" d="M287.8,191.7h16.3v33.5c0,3.3-0.5,6.5-1.5,9.4c-1,3-2.5,5.5-4.6,7.7c-2.1,2.2-4.3,3.8-6.5,4.7
				c-3.2,1.3-7,1.9-11.4,1.9c-2.6,0-5.4-0.2-8.4-0.6c-3-0.4-5.6-1.1-7.6-2.3c-2-1.1-3.9-2.8-5.6-4.8s-2.9-4.3-3.5-6.5
				c-1-3.6-1.5-6.7-1.5-9.5v-33.5h16.3V226c0,3.1,0.8,5.5,2.4,7.2c1.6,1.7,3.8,2.6,6.7,2.6c2.8,0,5-0.8,6.6-2.5
				c1.6-1.7,2.4-4.1,2.4-7.2V191.7z"/>
			<path class="st9" d="M313.9,207.2h13.7v6.6c2-2.7,4.1-4.6,6.2-5.8s4.6-1.7,7.6-1.7c4.1,0,7.2,1.3,9.5,3.9
				c2.3,2.6,3.4,6.5,3.4,11.9v25.9h-14.8v-22.4c0-2.6-0.4-4.4-1.3-5.4s-2.1-1.6-3.8-1.6c-1.8,0-3.2,0.7-4.3,2.1
				c-1.1,1.4-1.7,4-1.7,7.7v19.6h-14.7V207.2z"/>
			<path class="st9" d="M363.7,191.7h14.7v10.6h-14.7V191.7z M363.7,207.2h14.7v40.7h-14.7V207.2z"/>
			<path class="st9" d="M402.2,207.2h6.6v11.4h-6.6v29.3h-13.3v-29.3h-4.8v-11.4h4.8v-1.8c0-1.5,0.2-3.3,0.5-5.4
				c0.3-2.1,1-3.7,2-5.1c1-1.3,2.3-2.3,4.1-3.1c1.7-0.7,3.8-1.1,6.3-1.1c1.9,0,5.3,0.3,10.2,0.9l-1.6,9.4c-1.7-0.3-3-0.4-3.7-0.4
				c-1.6,0-2.7,0.4-3.4,1.2c-0.7,0.8-1,2.3-1,4.5V207.2z M414.8,191.7h13.4v10.6h-13.4V191.7z M414.8,207.2h13.4v40.7h-13.4V207.2z"
				/>
			<path class="st9" d="M479.6,231.4h-29.4c0.3,2.5,0.9,4.4,1.9,5.6c1.4,1.8,3.3,2.6,5.6,2.6c1.4,0,2.8-0.4,4.1-1.2
				c0.8-0.5,1.6-1.3,2.6-2.6l14.5,1.4c-2.2,4.1-4.9,7-8,8.8c-3.1,1.8-7.6,2.7-13.5,2.7c-5.1,0-9.1-0.8-12-2.3s-5.3-3.9-7.2-7.3
				c-1.9-3.3-2.9-7.2-2.9-11.7c0-6.4,1.9-11.5,5.8-15.5c3.8-3.9,9.1-5.9,15.9-5.9c5.5,0,9.8,0.9,13,2.6s5.6,4.3,7.2,7.7
				s2.5,7.7,2.5,13.1V231.4z M464.7,223.9c-0.3-3-1.1-5.2-2.3-6.5c-1.2-1.3-2.9-2-4.9-2c-2.3,0-4.2,1-5.6,3
				c-0.9,1.2-1.5,3.1-1.7,5.5H464.7z"/>
			<path class="st9" d="M526.7,191.7v56.2h-13.7v-6c-1.9,2.6-3.7,4.3-5.3,5.2c-2.1,1.2-4.5,1.8-7.1,1.8c-5.2,0-9.2-2.1-12-6.3
				c-2.8-4.2-4.1-9.3-4.1-15.4c0-6.8,1.5-11.9,4.6-15.5c3-3.6,6.9-5.4,11.6-5.4c2.3,0,4.4,0.4,6.2,1.2s3.5,2,5,3.7v-19.5H526.7z
				 M511.9,227.4c0-3.2-0.6-5.6-1.9-7.2c-1.3-1.6-2.9-2.4-4.8-2.4c-1.7,0-3.1,0.8-4.3,2.3c-1.2,1.5-1.7,4-1.7,7.6
				c0,3.3,0.6,5.8,1.8,7.3c1.2,1.5,2.7,2.3,4.4,2.3c1.9,0,3.4-0.8,4.7-2.3C511.3,233.5,511.9,231,511.9,227.4z"/>
			<path class="st9" d="M561.9,191.7h16.4v56.2h-16.4V191.7z"/>
			<path class="st9" d="M589,207.2h13.7v6.6c2-2.7,4.1-4.6,6.2-5.8s4.6-1.7,7.6-1.7c4.1,0,7.2,1.3,9.5,3.9c2.3,2.6,3.4,6.5,3.4,11.9
				v25.9h-14.8v-22.4c0-2.6-0.4-4.4-1.3-5.4s-2.1-1.6-3.8-1.6c-1.8,0-3.2,0.7-4.3,2.1c-1.1,1.4-1.7,4-1.7,7.7v19.6H589V207.2z"/>
			<path class="st9" d="M635.6,236.6l14.6-1.5c0.6,1.8,1.4,3.2,2.5,4s2.5,1.2,4.3,1.2c2,0,3.5-0.4,4.6-1.3c0.8-0.7,1.3-1.5,1.3-2.5
				c0-1.1-0.6-2-1.7-2.6c-0.8-0.4-2.9-1-6.3-1.6c-5.1-0.9-8.6-1.8-10.6-2.6c-2-0.8-3.7-2.2-5-4.1s-2-4.1-2-6.6c0-2.7,0.7-5,2.2-6.9
				s3.5-3.4,6.1-4.4c2.6-1,6-1.4,10.4-1.4c4.6,0,7.9,0.4,10.1,1.1c2.2,0.7,4,1.9,5.4,3.5s2.7,3.7,3.6,6.3l-13.9,1.5
				c-0.4-1.3-1-2.3-1.8-2.9c-1.2-0.8-2.5-1.2-4.2-1.2c-1.7,0-2.9,0.3-3.6,0.9c-0.8,0.6-1.1,1.4-1.1,2.3c0,1,0.5,1.7,1.4,2.3
				c1,0.5,3.1,1,6.3,1.4c4.9,0.6,8.5,1.4,10.9,2.5c2.4,1,4.2,2.5,5.5,4.5c1.3,1.9,1.9,4.1,1.9,6.4c0,2.4-0.7,4.6-2,6.9
				c-1.3,2.2-3.4,4-6.3,5.3c-2.9,1.3-6.8,2-11.7,2c-7,0-12-1.1-14.9-3.2S636.5,240.5,635.6,236.6z"/>
			<path class="st9" d="M683.4,263.4v-56.2h13.7v6c1.9-2.5,3.6-4.2,5.2-5.1c2.1-1.2,4.5-1.8,7.1-1.8c5.1,0,9.1,2.1,11.9,6.3
				c2.8,4.2,4.2,9.3,4.2,15.5c0,6.8-1.5,12-4.6,15.5s-6.9,5.4-11.6,5.4c-2.3,0-4.3-0.4-6.2-1.2s-3.5-2-5-3.6v19.5H683.4z
				 M698.1,227.7c0,3.2,0.6,5.6,1.9,7.2c1.3,1.6,2.9,2.3,4.8,2.3c1.7,0,3.1-0.7,4.3-2.2s1.7-4,1.7-7.6c0-3.3-0.6-5.7-1.8-7.3
				c-1.2-1.5-2.7-2.3-4.4-2.3c-1.9,0-3.4,0.8-4.7,2.3C698.8,221.6,698.1,224.1,698.1,227.7z"/>
			<path class="st9" d="M775.1,231.4h-29.4c0.3,2.5,0.9,4.4,1.9,5.6c1.4,1.8,3.3,2.6,5.6,2.6c1.4,0,2.8-0.4,4.1-1.2
				c0.8-0.5,1.6-1.3,2.6-2.6l14.5,1.4c-2.2,4.1-4.9,7-8,8.8c-3.1,1.8-7.6,2.7-13.5,2.7c-5.1,0-9.1-0.8-12-2.3s-5.3-3.9-7.2-7.3
				c-1.9-3.3-2.9-7.2-2.9-11.7c0-6.4,1.9-11.5,5.8-15.5c3.8-3.9,9.1-5.9,15.9-5.9c5.5,0,9.8,0.9,13,2.6s5.6,4.3,7.2,7.7
				s2.5,7.7,2.5,13.1V231.4z M760.2,223.9c-0.3-3-1.1-5.2-2.3-6.5c-1.2-1.3-2.9-2-4.9-2c-2.3,0-4.2,1-5.6,3
				c-0.9,1.2-1.5,3.1-1.7,5.5H760.2z"/>
			<path class="st9" d="M810.5,232l14,1.7c-0.8,3.1-2,5.8-3.8,8s-4,4-6.7,5.3c-2.7,1.3-6.2,1.9-10.4,1.9c-4.1,0-7.4-0.4-10.2-1.2
				c-2.7-0.8-5-2.1-7-3.9s-3.5-3.9-4.6-6.3c-1.1-2.4-1.7-5.6-1.7-9.7c0-4.2,0.7-7.7,2-10.5c1-2,2.3-3.9,4-5.5
				c1.7-1.6,3.5-2.8,5.3-3.6c2.9-1.3,6.5-1.9,11-1.9c6.3,0,11,1.2,14.3,3.6s5.6,5.9,6.9,10.4l-13.8,2c-0.4-1.7-1.2-3-2.4-3.9
				c-1.1-0.9-2.7-1.3-4.6-1.3c-2.4,0-4.4,0.9-5.9,2.8c-1.5,1.9-2.3,4.7-2.3,8.4c0,3.3,0.7,5.9,2.2,7.6c1.5,1.7,3.4,2.6,5.7,2.6
				c1.9,0,3.5-0.5,4.9-1.6C808.8,235.7,809.8,234.1,810.5,232z"/>
			<path class="st9" d="M848.9,191.7v15.5h8.1v11.4h-8.1V233c0,1.7,0.2,2.9,0.5,3.4c0.5,0.9,1.3,1.3,2.5,1.3c1.1,0,2.6-0.3,4.5-1
				l1.1,10.8c-3.6,0.8-7,1.3-10.2,1.3c-3.7,0-6.3-0.5-8.1-1.5c-1.7-1-3-2.5-3.8-4.5c-0.8-2-1.2-5.3-1.2-9.9v-14.3h-5.4v-11.4h5.4
				v-7.5L848.9,191.7z"/>
			<path class="st9" d="M864.5,191.7h14.7v10.6h-14.7V191.7z M864.5,207.2h14.7v40.7h-14.7V207.2z"/>
			<path class="st9" d="M886.7,227.7c0-6.2,2-11.3,5.9-15.4s9.3-6,16-6c7.7,0,13.5,2.4,17.4,7.1c3.1,3.8,4.7,8.5,4.7,14.1
				c0,6.3-2,11.4-5.9,15.4c-3.9,4-9.3,6-16.2,6c-6.2,0-11.1-1.7-14.9-5C889.1,239.7,886.7,234.3,886.7,227.7z M901.5,227.6
				c0,3.6,0.7,6.3,2.1,8.1c1.4,1.7,3.1,2.6,5.2,2.6c2.1,0,3.9-0.9,5.2-2.6c1.4-1.7,2-4.5,2-8.2c0-3.5-0.7-6.2-2.1-7.9
				c-1.4-1.7-3.1-2.6-5.1-2.6c-2.1,0-3.9,0.9-5.3,2.6C902.1,221.4,901.5,224,901.5,227.6z"/>
			<path class="st9" d="M937.8,207.2h13.7v6.6c2-2.7,4.1-4.6,6.2-5.8s4.6-1.7,7.6-1.7c4.1,0,7.2,1.3,9.5,3.9
				c2.3,2.6,3.4,6.5,3.4,11.9v25.9h-14.8v-22.4c0-2.6-0.4-4.4-1.3-5.4s-2.1-1.6-3.8-1.6c-1.8,0-3.2,0.7-4.3,2.1
				c-1.1,1.4-1.7,4-1.7,7.7v19.6h-14.7V207.2z"/>
			<path class="st9" d="M1009.8,229.3l15.5-1c0.3,2.7,1,4.7,2.1,6.1c1.7,2.3,4.1,3.4,7.2,3.4c2.3,0,4.1-0.6,5.4-1.7
				c1.3-1.2,1.9-2.5,1.9-4c0-1.5-0.6-2.8-1.8-3.9c-1.2-1.2-4-2.2-8.4-3.3c-7.2-1.7-12.3-4-15.3-6.8c-3.1-2.8-4.6-6.5-4.6-10.9
				c0-2.9,0.8-5.6,2.4-8.2c1.6-2.6,3.9-4.6,7.1-6.1c3.2-1.5,7.5-2.2,13-2.2c6.8,0,11.9,1.3,15.5,4c3.5,2.7,5.7,6.9,6.3,12.8l-15.4,1
				c-0.4-2.5-1.3-4.4-2.6-5.5c-1.3-1.2-3.1-1.7-5.4-1.7c-1.9,0-3.3,0.4-4.3,1.3c-1,0.9-1.4,1.9-1.4,3.1c0,0.9,0.4,1.7,1.2,2.4
				c0.8,0.7,2.6,1.4,5.5,2.1c7.1,1.6,12.3,3.3,15.3,5c3.1,1.7,5.3,3.8,6.7,6.2c1.4,2.5,2.1,5.3,2.1,8.3c0,3.6-0.9,6.9-2.8,10
				c-1.9,3-4.5,5.4-7.9,6.9c-3.4,1.6-7.6,2.4-12.7,2.4c-9,0-15.2-1.8-18.7-5.5C1012.2,239.7,1010.3,235,1009.8,229.3z"/>
			<path class="st9" d="M1060.8,207.2h15.5l7.9,27.1l7.3-27.1h14.5l-15.2,43.5c-1.7,5-3.5,8.3-5.3,10.1c-2.5,2.5-6.4,3.7-11.6,3.7
				c-2.1,0-5.4-0.3-9.8-0.9l-1.2-10.9c2.1,0.7,4.5,1.1,7.1,1.1c1.7,0,3.1-0.4,4.2-1.3c1.1-0.8,2-2.4,2.7-4.5L1060.8,207.2z"/>
			<path class="st9" d="M1107.6,236.6l14.6-1.5c0.6,1.8,1.4,3.2,2.5,4s2.5,1.2,4.3,1.2c2,0,3.5-0.4,4.6-1.3c0.8-0.7,1.3-1.5,1.3-2.5
				c0-1.1-0.6-2-1.7-2.6c-0.8-0.4-2.9-1-6.3-1.6c-5.1-0.9-8.6-1.8-10.6-2.6c-2-0.8-3.7-2.2-5-4.1s-2-4.1-2-6.6c0-2.7,0.7-5,2.2-6.9
				s3.5-3.4,6.1-4.4c2.6-1,6-1.4,10.4-1.4c4.6,0,7.9,0.4,10.1,1.1c2.2,0.7,4,1.9,5.4,3.5s2.7,3.7,3.6,6.3l-13.9,1.5
				c-0.4-1.3-1-2.3-1.8-2.9c-1.2-0.8-2.5-1.2-4.2-1.2c-1.7,0-2.9,0.3-3.6,0.9c-0.8,0.6-1.1,1.4-1.1,2.3c0,1,0.5,1.7,1.4,2.3
				c1,0.5,3.1,1,6.3,1.4c4.9,0.6,8.5,1.4,10.9,2.5c2.4,1,4.2,2.5,5.5,4.5c1.3,1.9,1.9,4.1,1.9,6.4c0,2.4-0.7,4.6-2,6.9
				c-1.3,2.2-3.4,4-6.3,5.3c-2.9,1.3-6.8,2-11.7,2c-7,0-12-1.1-14.9-3.2S1108.4,240.5,1107.6,236.6z"/>
			<path class="st9" d="M1173,191.7v15.5h8.1v11.4h-8.1V233c0,1.7,0.2,2.9,0.5,3.4c0.5,0.9,1.3,1.3,2.5,1.3c1.1,0,2.6-0.3,4.5-1
				l1.1,10.8c-3.6,0.8-7,1.3-10.2,1.3c-3.7,0-6.3-0.5-8.1-1.5c-1.7-1-3-2.5-3.8-4.5c-0.8-2-1.2-5.3-1.2-9.9v-14.3h-5.4v-11.4h5.4
				v-7.5L1173,191.7z"/>
			<path class="st9" d="M1230.6,231.4h-29.4c0.3,2.5,0.9,4.4,1.9,5.6c1.4,1.8,3.3,2.6,5.6,2.6c1.4,0,2.8-0.4,4.1-1.2
				c0.8-0.5,1.6-1.3,2.6-2.6l14.5,1.4c-2.2,4.1-4.9,7-8,8.8c-3.1,1.8-7.6,2.7-13.5,2.7c-5.1,0-9.1-0.8-12-2.3s-5.3-3.9-7.2-7.3
				c-1.9-3.3-2.9-7.2-2.9-11.7c0-6.4,1.9-11.5,5.8-15.5c3.8-3.9,9.1-5.9,15.9-5.9c5.5,0,9.8,0.9,13,2.6s5.6,4.3,7.2,7.7
				s2.5,7.7,2.5,13.1V231.4z M1215.7,223.9c-0.3-3-1.1-5.2-2.3-6.5c-1.2-1.3-2.9-2-4.9-2c-2.3,0-4.2,1-5.6,3
				c-0.9,1.2-1.5,3.1-1.7,5.5H1215.7z"/>
			<path class="st9" d="M1237.4,207.2h13.7v5.9c2-2.5,4-4.2,6-5.3c2-1,4.4-1.6,7.3-1.6c3.1,0,5.5,0.6,7.3,1.7
				c1.8,1.2,3.2,2.9,4.4,5.1c2.3-2.7,4.4-4.5,6.3-5.4c1.9-1,4.2-1.4,7-1.4c4.1,0,7.3,1.3,9.6,3.9c2.3,2.6,3.5,6.7,3.5,12.2v25.6
				h-14.7v-23.2c0-1.8-0.3-3.2-1-4.1c-1-1.4-2.2-2.1-3.7-2.1c-1.7,0-3.1,0.7-4.2,2c-1.1,1.3-1.6,3.5-1.6,6.4v21h-14.7v-22.4
				c0-1.8-0.1-3-0.3-3.6c-0.3-1-0.9-1.8-1.6-2.5c-0.8-0.6-1.7-0.9-2.7-0.9c-1.7,0-3.1,0.7-4.2,2s-1.6,3.6-1.6,6.7v20.8h-14.7V207.2z
				"/>
		</g>
		<g>
			<path class="st9" d="M319.7,357h-63.5l5.5-10.9h30.8c-0.7-6.2-2.8-11.1-6.4-14.8c-3-3-6-4.6-9-4.6V316c7.4,0,13.5,2.5,18.2,7.4
				c4.9,5.1,8,12.7,9.2,22.7h15.1V357z"/>
			<path class="st9" d="M378.2,357h-60.8v-11h48.8c-2.2-13.2-8.7-19.9-19.2-19.9c-6.8,0-11.6,1.2-14.8,3.8l-4.5-9.2
				c4.4-3.9,11-5.8,19.6-5.8c10.8,0,19,4.6,24.4,13.7C376.1,336,378.2,345.4,378.2,357z"/>
			<path class="st9" d="M450.8,357h-16c-3.4,13.9-13.5,23.1-27.6,24.4c-1.7-2.2-4.1-5.4-7.2-9.3c10.1,0,18.9-5.7,22.4-15h-7.8
				c-11,0-18.5-9.4-18.5-20.1c0-12.7,9.3-21.1,20.7-21.1c12.1,0,19.1,7,19.1,17.7v12.6h14.9V357z M424.2,346.1
				c-0.1-9.2-0.1-14.3-0.1-15.2c0-2.5-3.3-6.8-7.2-6.8c-5.1,0-9,4.8-9,12.2c0,5.4,3.8,9.8,8.4,9.8H424.2z"/>
			<path class="st9" d="M509.1,357h-11.4c-3.2,6.8-9.2,10.2-18,10.2c-8.3,0-14.4-3.4-18.3-10.2h-12.8v-10.9h9.9
				c0-13,7.8-21.1,20.3-21.1c6.5,0,11.8,2.2,15.6,6.6c3.7,4,5.5,8.9,5.5,14.5h9.1V357z M488.3,346.1c0-3.5-1-6.3-2.9-8.4
				c-1.7-1.9-3.8-2.8-6.1-2.8c-2.4,0-4.4,0.9-6,2.8c-1.7,2-2.6,4.8-2.6,8.4s1,6.4,2.9,8.5c1.7,1.9,3.8,2.8,6.1,2.8
				C484.7,357.4,488.3,353.4,488.3,346.1z"/>
			<path class="st9" d="M533.8,342.4c0,9-5.3,14.6-15,14.6h-11.8v-10.9h7.5c4.3,0,7.5-2.7,7.5-7.7c0-7-0.1-15.9-0.2-26.9
				c-0.1-12.5-0.2-21.6-0.2-27.1h11.6c0.1,5.2,0.1,14.8,0.2,29.1C533.7,325.6,533.8,335.2,533.8,342.4z"/>
			<path class="st9" d="M563.9,357h-11.6l-0.6-72.6h11.6L563.9,357z"/>
			<path class="st9" d="M740.5,357h-10.9c-2.1,0-4.3-0.8-6.4-2.4c-2.3-1.7-4-3.9-5-6.7c-2.1,7-7,10.6-14.8,10.7
				c-6.8,0.1-11.8-2.8-14.9-8.9c-2.3,5.7-7.1,8.8-14.1,8.9c-5.7,0.1-10-1.9-13.1-5.9c-0.6,7.5-3.4,14-8.5,19.5
				c-5.7,6.2-12.6,9.3-20.7,9.3s-15-3.1-20.7-9.3c-5.8-6.2-8.7-13.6-8.7-22.4l-0.4-22.9h11.9c0,8.6,0,16.4,0.1,23.1
				c0,5.3,1.8,9.9,5.2,13.6c3.4,3.8,7.7,5.7,12.6,5.7c4.9,0,9.1-1.9,12.5-5.7c3.5-3.8,5.3-8.4,5.3-13.8c-0.1-17.5-0.2-27.6-0.2-30.4
				h11.6v15.2c0.1,4.2,1.1,7.3,3.1,9.5c1.9,2,4.3,3,7.3,3c4.5,0,6.8-2.6,6.8-7.6c0-1.6,0-8.3-0.1-20.1h11.6c0,3.1,0.1,8.2,0.2,15.3
				c0.1,4.2,1.1,7.3,3.2,9.4c1.9,2,4.2,3,7.2,3c4.5,0,6.8-2.5,6.8-7.5c0,0.3,0-7.4-0.1-23.5h11.6c0,3.9,0.1,10.2,0.2,18.9
				c0.1,3.5,1.3,6.3,3.5,8.4c1.9,1.9,3.9,2.8,6,2.8h11.6V357z M681.5,306.9h-10.8v-11.3h10.8V306.9z M689.5,292.1h-10.6v-11.2h10.6
				V292.1z M697.6,306.9h-10.8v-11.3h10.8V306.9z"/>
			<path class="st9" d="M789.9,357H780c-3.3,0-6.2-1.5-8.5-4.3c-1.2-1.6-2.2-3.1-2.8-4.8c-1.9,5.5-7.7,9-13.8,9.1h-17.5v-10.9h13.1
				c2.1,0,4-0.6,5.8-1.8c2.3-1.5,3.4-3.5,3.4-6.1l-0.2-22.2h11.6c0,4.2,0.1,10,0.3,17.5c0,3.9,1.1,7.1,3.4,9.4
				c1.9,2.1,3.9,3.1,6.1,3.1h8.9v2.8v5.3V357z M760.2,374.1h-10.8v-11.3h10.8V374.1z M776.2,374.1h-10.6v-11.3h10.6V374.1z"/>
			<path class="st9" d="M841.2,357h-10.9c-3.3,0-6.2-1.5-8.5-4.3c-1.2-1.6-2.2-3.1-2.8-4.8c-1.9,5.5-7.7,9-13.8,9.1h-17.5v-10.9
				h13.1c2.1,0,4-0.6,5.8-1.8c2.3-1.5,3.4-3.5,3.4-6.1l-0.2-22.2h11.6c0,4.2,0.1,10,0.3,17.5c0,3.9,1.1,7.1,3.4,9.4
				c1.9,2.1,3.9,3.1,6.1,3.1h9.9v2.8v5.3V357z M812.6,306.9h-10.8v-11.3h10.8V306.9z M828.7,306.9h-10.8v-11.3h10.8V306.9z"/>
			<path class="st9" d="M896.9,357h-12.2c-6.1,0-12.2-1.2-18.3-3.8c-6.1,2.6-12.2,3.8-18.1,3.8h-9v-10.9h3c4.8,0,8.7-0.3,11.4-0.9
				c-5.2-5.2-7.9-11.1-7.9-17.7c0-6.2,2.1-11,6.2-14.6c3.8-3.3,8.5-4.9,14.2-4.9c5.7,0,10.4,1.7,14.2,4.9c4.2,3.6,6.3,8.4,6.3,14.6
				c0,6.6-2.6,12.5-7.8,17.7c3,0.6,6.9,0.9,11.6,0.9h6.2V357z M875.1,327c0-2.8-0.8-5.1-2.2-7c-1.7-2.1-3.8-3.1-6.4-3.1
				c-5.4,0-8.8,4.6-8.8,10.1c0,3.5,1.2,6.8,3.8,10c2,2.5,3.7,3.7,5,3.7s3-1.2,5-3.7C873.8,333.9,875.1,330.5,875.1,327z
				 M871.4,299.3h-10.6V288h10.6V299.3z"/>
			<path class="st9" d="M948.3,357h-10.9c-3.3,0-6.2-1.5-8.5-4.3c-1.2-1.6-2.2-3.1-2.8-4.8c-1.9,5.5-7.7,9-13.8,9.1h-17.5v-10.9
				h13.1c2.1,0,4-0.6,5.8-1.8c2.3-1.5,3.4-3.5,3.4-6.1l-0.2-22.2h11.6c0,4.2,0.1,10,0.3,17.5c0,3.9,1.1,7.1,3.4,9.4
				c1.9,2.1,3.9,3.1,6.1,3.1h9.9v2.8v5.3V357z M919.7,306.9h-10.8v-11.3h10.8V306.9z M935.7,306.9H925v-11.3h10.8V306.9z"/>
			<path class="st9" d="M973.1,342.4c0,9-5.3,14.6-15,14.6h-11.8v-10.9h7.5c4.3,0,7.5-2.7,7.5-7.7c0-7-0.1-15.9-0.2-26.9
				c-0.1-12.5-0.2-21.6-0.2-27.1h11.6c0.1,5.2,0.1,14.8,0.2,29.1C973,325.6,973.1,335.2,973.1,342.4z"/>
			<path class="st9" d="M1003.2,357h-11.6l-0.6-72.6h11.6L1003.2,357z"/>
			<path class="st9" d="M1106.7,335.9c0,13.1-7.8,21.1-20.3,21.1c-5.9,0-10.6-1.8-14.4-5.3c-3.5-3.3-5.7-7.4-6.4-12.3h-5.8
				c-2.8,0-4.7,0.9-5.7,2.7c-0.6,1.2-0.9,3.5-0.8,6.6l0.4,32.7h-11.6l-0.6-38.9c-0.1-9.8,4.8-14.7,14.5-14.7h4.4h6
				c2.8-8.6,9.1-12.9,19-12.9c6.5,0,11.8,2.2,15.8,6.7C1104.9,325.6,1106.7,330.4,1106.7,335.9z M1095,336c0-3.5-1-6.4-2.9-8.5
				c-1.7-1.9-3.8-2.8-6.2-2.8c-2.3,0-4.3,0.9-5.9,2.8c-1.7,2.1-2.6,4.9-2.6,8.5c0,3.5,1,6.4,2.9,8.5c1.7,1.9,3.8,2.8,6.1,2.8
				C1091.4,347.3,1095,343.2,1095,336z"/>
			<path class="st9" d="M1150.2,357h-13.6c-3.1,0-5.8-1.1-7.9-3.3c-2.4-2.4-3.8-5.7-3.8-10l-0.3-59.4h11.8l0.4,54.7
				c0,4,2,7.1,5.1,7.1h8.3V357z"/>
			<path class="st9" d="M1173.7,346.1V357h-25.6v-10.9H1173.7z"/>
			<path class="st9" d="M1184.6,346.1V357h-25.6v-10.9H1184.6z"/>
			<path class="st9" d="M1267.2,357h-84.8v-10.9h11.1l-0.3-55.7h11.5l-0.7,36c5.3-7.1,12.3-10.7,21-10.7c15.4,0,24.1,10.1,26,30.3
				h16.2V357z M1239.4,346.1c0.1-13.1-4.8-19.6-14.5-19.6c-10.3,0-17.9,6.5-22.4,19.6H1239.4z M1229,306.9h-10.5v-11.3h10.5V306.9z"
				/>
			<path class="st9" d="M1297.4,342.4c0,9-5.2,14.6-14.9,14.6h-17.4v-10.9h13.1c4.3,0,7.5-2.7,7.5-7.7c0-4.4,0-8.1-0.1-11.1
				c-0.1-4.6-0.1-8.4-0.2-11.2h11.8C1297.3,333.8,1297.4,342.5,1297.4,342.4z M1296.3,307h-10.8v-11.3h10.8V307z"/>
		</g>
	</g>
</g>
<g id="eps">
</g>
</svg>
