<?xml version="1.0" encoding="utf-8"?>
<!-- Generator: Adobe Illustrator 25.0.1, SVG Export Plug-In . SVG Version: 6.00 Build 0)  -->
<svg version="1.1" xmlns="http://www.w3.org/2000/svg" xmlns:xlink="http://www.w3.org/1999/xlink" x="0px" y="0px"
	 viewBox="0 0 500 500" style="enable-background:new 0 0 500 500;" xml:space="preserve">
<style type="text/css">
	.st0{fill:#EEEEEE;}
	.st1{fill:#7A7A7A;}
	.st2{fill:#D13232;}
	.st3{fill:#E4E6E7;}
	.st4{fill:#98AFBF;}
	.st5{fill:#95AEC1;}
	.st6{fill:#9BB4C8;}
	.st7{fill:#9EB6C9;}
	.st8{fill:#3E7EB3;}
	.st9{fill:#3E80AC;}
	.st10{clip-path:url(#SVGID_10_);}
	.st11{clip-path:url(#SVGID_13_);enable-background:new    ;}
	.st12{clip-path:url(#SVGID_15_);}
	.st13{clip-path:url(#SVGID_17_);}
	.st14{clip-path:url(#SVGID_21_);}
	.st15{clip-path:url(#SVGID_23_);}
	.st16{clip-path:url(#SVGID_27_);}
	.st17{filter:url(#Adobe_OpacityMaskFilter);}
	.st18{clip-path:url(#SVGID_29_);}
	.st19{clip-path:url(#SVGID_29_);mask:url(#SVGID_30_);}
	.st20{filter:url(#Adobe_OpacityMaskFilter_1_);}
	.st21{enable-background:new    ;}
	.st22{clip-path:url(#SVGID_34_);}
	.st23{clip-path:url(#SVGID_38_);}
	.st24{filter:url(#Adobe_OpacityMaskFilter_2_);}
	.st25{clip-path:url(#SVGID_40_);}
	.st26{opacity:0.4957;clip-path:url(#SVGID_44_);enable-background:new    ;}
	.st27{clip-path:url(#SVGID_46_);}
	.st28{clip-path:url(#SVGID_48_);}
	.st29{clip-path:url(#SVGID_50_);enable-background:new    ;}
	.st30{clip-path:url(#SVGID_52_);}
	.st31{clip-path:url(#SVGID_54_);}
	.st32{fill:none;stroke:#666666;stroke-width:4.7447;stroke-miterlimit:10;}
	.st33{clip-path:url(#SVGID_59_);}
	.st34{clip-path:url(#SVGID_61_);enable-background:new    ;}
	.st35{clip-path:url(#SVGID_63_);}
	.st36{clip-path:url(#SVGID_65_);}
	.st37{clip-path:url(#SVGID_69_);}
	.st38{clip-path:url(#SVGID_71_);}
	.st39{clip-path:url(#SVGID_75_);}
	.st40{filter:url(#Adobe_OpacityMaskFilter_3_);}
	.st41{clip-path:url(#SVGID_77_);}
	.st42{clip-path:url(#SVGID_77_);mask:url(#SVGID_78_);}
	.st43{filter:url(#Adobe_OpacityMaskFilter_4_);}
	.st44{clip-path:url(#SVGID_82_);}
	.st45{clip-path:url(#SVGID_86_);}
	.st46{filter:url(#Adobe_OpacityMaskFilter_5_);}
	.st47{clip-path:url(#SVGID_88_);}
	.st48{opacity:0.4957;clip-path:url(#SVGID_92_);enable-background:new    ;}
	.st49{clip-path:url(#SVGID_94_);}
	.st50{clip-path:url(#SVGID_96_);}
	.st51{clip-path:url(#SVGID_98_);enable-background:new    ;}
	.st52{clip-path:url(#SVGID_100_);}
	.st53{clip-path:url(#SVGID_102_);}
	.st54{fill:#17517B;}
	.st55{fill:#FF0000;}
	.st56{fill:#B2D4A3;}
	.st57{fill:#C0DBB3;}
	.st58{fill:#ECEDEE;}
	.st59{fill:#FFFFFF;}
	.st60{fill:#2BBB94;}
	.st61{fill:#454545;}
	.st62{fill:#D1D3D4;}
	.st63{clip-path:url(#SVGID_107_);}
	.st64{clip-path:url(#SVGID_109_);}
	.st65{clip-path:url(#SVGID_112_);}
	.st66{clip-path:url(#SVGID_114_);}
	.st67{clip-path:url(#SVGID_116_);}
	.st68{clip-path:url(#SVGID_117_);}
</style>
<g id="Back">
</g>
<g id="shadow">
</g>
<g id="business_card">
</g>
<g id="LOGO_HERE">
	<g>
		<g>
			<g>
				<path class="st9" d="M453.9,53v372h-33.7V53c0-10.6-8.6-19.3-19.2-19.3h-7.3c-15.3,0-29.5,7.3-38.3,19.5
					c14.1-20.6,37.9-34.1,64.9-34.1c8.5,0,16.7,1.3,24.3,3.8C450.5,31.5,453.9,41.8,453.9,53z"/>
				<path class="st9" d="M420.2,418.8h33.7v57c0,13.3-10.9,24.2-24.2,24.2H172.5C103,500,46.1,443.1,46.1,373.6V179
					c0-1.6,0.1-3.1,0.4-4.6c14.7,6.9,27.3,17.8,36.1,31.5l-2.9-3.1v161.3c0,56.4,45.8,102.2,102.2,102.2h238.3V418.8z"/>
			</g>
			<path class="st2" d="M444.6,22.9c-7.7-2.5-15.8-3.8-24.3-3.8c-28,0-52.6,14.6-66.5,36.6c-1.7,2.6-3.3,5.3-4.6,8.2
				c0,0.1-0.1,0.1-0.1,0.2l-27.9,51.2L218.4,303.3c-3.7,6.8-10.5,11.4-18.1,12.4c-7.6,1-15.4-1.8-20.7-7.4l-46.1-48.7l-50.8-53.8
				c-8.9-13.7-21.5-24.6-36.1-31.5c1.2-6.3,4.8-11.8,10.1-15.4c1.4-1,13.7-7.6,31.2,3.4l91.9,62.9c8.5,5.8,20,3.5,25.6-5L322.5,42.3
				c7.1-13.1,17.5-23.6,29.8-30.9C364.6,4,378.9,0,393.7,0h7.3c16.5,0,31.2,7.6,41,19.5C442.9,20.6,443.8,21.7,444.6,22.9z"/>
		</g>
		<g>
			<path class="st2" d="M150.7,134.2l30.2,24.5l26.6-32.8c5.1-6.2,8.1-13.5,9.1-20.8c1.1-7.7,0-15.5-3-22.6c-1.3-3.1-3-6.1-5.1-8.8
				c-2-2.6-4.4-5.1-7.1-7.3c-9.1-7.4-20.3-10.4-31.1-9.3s-21.2,6.3-28.5,15.4c-2.2,2.8-4.1,5.7-5.5,8.6c-1.5,3.1-2.5,6.3-3.2,9.7
				c-1.4,7.1-1,14.4,1.1,21.3c2.1,6.6,5.8,12.7,11,17.7L150.7,134.2L150.7,134.2z M155.5,165.5l-24.4-19.8l0,0
				c-0.1-0.1-0.2-0.2-0.3-0.3c-8.1-7.6-13.8-17-16.9-27c-3.3-10.3-3.9-21.3-1.7-31.9c1-4.9,2.6-9.8,4.8-14.5c2.2-4.6,4.9-9,8.2-13
				c11.1-13.6,26.6-21.5,42.8-23.2c16.2-1.7,33,2.8,46.7,13.9c4,3.3,7.6,7,10.6,11c3.1,4.2,5.7,8.6,7.7,13.2
				c4.6,10.7,6.2,22.5,4.6,34c-1.5,11.1-6.1,22-13.6,31.3l-36.6,45.1c-1.9,2.3-5.3,2.7-7.6,0.8L155.5,165.5L155.5,165.5z"/>
		</g>
	</g>
</g>
<g id="eps">
</g>
</svg>
