<svg xmlns="http://www.w3.org/2000/svg" xmlns:xlink="http://www.w3.org/1999/xlink" width="33.589" height="38.387" viewBox="0 0 33.589 38.387"><defs><style>.a,.n{fill:#fff;}.a{stroke:#707070;}.b{clip-path:url(#a);}.c{fill:#fc9;}.c,.d,.e,.f,.g,.h,.i,.j,.k,.l,.m,.n,.o,.p{fill-rule:evenodd;}.d{fill:#c69a5e;}.e{fill:#d6a370;}.f{fill:#dcab68;}.g{fill:#4d2e27;}.h{fill:#564429;}.i{fill:#453721;}.j{fill:#755c38;}.k{fill:#211b10;}.l{fill:#e3bb85;}.m{fill:#a47238;}.o{fill:#a74400;}.p{fill:#ffff31;}</style><clipPath id="a"><rect class="a" width="33.589" height="38.387" transform="translate(0 0)"/></clipPath></defs><g class="b" transform="translate(0)"><g transform="translate(4.322 0.758)"><path class="c" d="M782.3,446.635l-1.465-.694a33.184,33.184,0,0,0-2.781,10.324c-.466,3.689-.746,7.788-.93,11.5,0,.069-.013.161-.027.269a8.367,8.367,0,0,0,2.548.019c.222-2.485.586-5.952,1.063-8.561a115.059,115.059,0,0,1,3.072-11.451l-1.479-1.4Z" transform="translate(-777.101 -424.803)"/><path class="d" d="M785.574,445.53l-1.985.214s-.309.544-.723,1.347c-.477.9-1.849,5.576-2.307,7.16,1.156.37,3.018.971,4.2,1.368.205-.716.562-1.971.895-3.2.262-2.428.411-5.305-.081-6.89Z" transform="translate(-779.894 -424.471)"/><path class="c" d="M867.419,446.635l1.465-.694a33.18,33.18,0,0,1,2.781,10.324c.466,3.689.747,7.788.93,11.5,0,.069.013.161.027.269a8.367,8.367,0,0,1-2.548.019c-.222-2.485-.586-5.952-1.064-8.561a115.068,115.068,0,0,0-3.071-11.451l1.478-1.4Z" transform="translate(-848.867 -424.803)"/><path class="d" d="M869.8,445.53l1.985.214s.309.544.723,1.347c.477.9,1.849,5.576,2.307,7.16-1.156.37-3.018.971-4.2,1.368-.205-.716-.561-1.971-.895-3.2-.262-2.428-.411-5.305.081-6.89Z" transform="translate(-851.722 -424.471)"/><path class="e" d="M831.432,420.057l-.182-1.356-2.092.161-2.092-.161-.179,1.338q.125.1.255.2c1.7,1.2,2.358,1.2,4.056,0,.08-.056.157-.116.234-.178Z" transform="translate(-817.319 -402.798)"/><path class="f" d="M810.417,447.77c-.1-3.264-.515-2.8-.381-4.746.148-2.153,2.375-12.291,2.375-12.291l.039-.01a.889.889,0,0,0-.039-.12c-.579-1.331-3.753-2.346-5.123-2.729l-.758-.939s-1.59,1.263-1.706,1.429a13.305,13.305,0,0,0-.506,1.369c-.061,0-.121,0-.179,0a13.655,13.655,0,0,0-.508-1.372c-.117-.166-1.707-1.429-1.707-1.429l-.765.948h0c-1.386.389-4.516,1.4-5.091,2.719a.954.954,0,0,0-.042.133c.023.107,2.227,10.148,2.375,12.289.132,1.913-.265,1.5-.376,4.579,1.3.55,3.75,1.145,8.087.911a17.264,17.264,0,0,0,4.3-.744Z" transform="translate(-792.39 -409.449)"/><path class="d" d="M825.192,428.346c-.2-.226-1.692-1.411-1.692-1.411l-.765.948h0l.859,2.514,1.613-2.034-.015-.019Z" transform="translate(-813.965 -409.449)"/><path class="d" d="M844.252,427.875h0l-.758-.939s-1.59,1.263-1.706,1.429l0,.005,1.609,2.029.859-2.514v-.009Z" transform="translate(-829.353 -409.449)"/><path class="e" d="M808.978,390.088c-.507-.081-1.343-.016-1.435,1.257-.106,1.463,1.409,2.014,2.032,2.178a7.949,7.949,0,0,1-.6-3.435Z" transform="translate(-801.688 -379.665)"/><path class="c" d="M815.539,367.313c-1.289,2.768-.266,6.711,1.934,8.266,1.734,1.226,2.41,1.226,4.144,0,2.2-1.555,3.223-5.5,1.934-8.266a4.439,4.439,0,0,0-3.982-2.562h-.047a4.438,4.438,0,0,0-3.982,2.562Z" transform="translate(-807.694 -359.215)"/><path class="g" d="M812.773,362.294a1.7,1.7,0,0,1,.416.017,6.316,6.316,0,0,1,.556-2.326,4.413,4.413,0,0,1,8.012,0,6.306,6.306,0,0,1,.556,2.326,1.692,1.692,0,0,1,.411-.018,15.844,15.844,0,0,0-.071-2.542c-.6-5.423-9.2-5.436-9.808,0a15.851,15.851,0,0,0-.071,2.542Z" transform="translate(-805.9 -351.889)"/><path class="e" d="M859.986,390.088c.507-.081,1.343-.016,1.435,1.257.105,1.463-1.409,2.014-2.032,2.178a7.94,7.94,0,0,0,.6-3.435Z" transform="translate(-843.575 -379.665)"/><path class="g" d="M819.158,362.564a7.384,7.384,0,0,0,7.536,0s-2.313-1.706-2.483-1.839a12.039,12.039,0,0,0-2.569,0c-.171.133-2.484,1.839-2.484,1.839Z" transform="translate(-811.075 -355.906)"/><path class="h" d="M807.935,340.8s-1.451-1.1-.918-1.51a22.352,22.352,0,0,1,2.4-1.777c6.254-2.085.971-2.085,7.225,0a22.316,22.316,0,0,1,2.4,1.777c.533.415-.918,1.51-.918,1.51a26.447,26.447,0,0,0-10.187,0Z" transform="translate(-801.172 -335.95)"/><path class="i" d="M838.528,335.958c.273-.076.324.443,3.663,1.556a22.344,22.344,0,0,1,2.4,1.777c.533.415-.918,1.511-.918,1.511a30.931,30.931,0,0,0-5.144-.495v-4.348Z" transform="translate(-826.723 -335.95)"/><path class="j" d="M812.288,359.109l.135,2.3s3.421-.089,5.449-.1,4.457.119,4.457.119l.146-2.317a26.445,26.445,0,0,0-10.187,0Z" transform="translate(-805.525 -354.258)"/><path class="k" d="M812.992,372.73s.03.859,1.836,1.318a14.148,14.148,0,0,0,5.834.118,3.491,3.491,0,0,0,2.236-1.421s-2.428-.134-4.457-.119-5.449.1-5.449.1Z" transform="translate(-806.094 -365.577)"/><path class="d" d="M838.3,441.513h-.063v18.83h.179v-18.83Z" transform="translate(-826.488 -421.226)"/><path class="l" d="M810.221,468.036h3.536a.12.12,0,0,1,.12.12v.8a.12.12,0,0,1-.12.12h-3.536a.12.12,0,0,1-.12-.12v-.8a.12.12,0,0,1,.12-.12Z" transform="translate(-803.759 -442.651)"/><path class="l" d="M849.521,468.036h3.536a.12.12,0,0,1,.12.12v.8a.12.12,0,0,1-.12.12h-3.536a.12.12,0,0,1-.12-.12v-.8a.12.12,0,0,1,.12-.12Z" transform="translate(-835.506 -442.651)"/><path class="m" d="M803.533,431.812l.144.879-3.243,1.283-.32-.782,3.419-1.38Z" transform="translate(-795.692 -413.389)"/><path class="m" d="M859.127,431.812l-.144.879,3.243,1.283.32-.782-3.419-1.38Z" transform="translate(-843.247 -413.389)"/><path class="n" d="M813.447,462.151h2.259a.062.062,0,0,1,.061.062v.409a.062.062,0,0,1-.061.062h-2.259a.062.062,0,0,1-.061-.062v-.409a.062.062,0,0,1,.061-.062Z" transform="translate(-806.413 -437.897)"/><path class="o" d="M854.386,457.569a1.117,1.117,0,1,1-1.117,1.117,1.117,1.117,0,0,1,1.117-1.117Z" transform="translate(-838.631 -434.196)"/><path class="p" d="M856.105,459.7a.708.708,0,1,1-.708.708.708.708,0,0,1,.708-.708Z" transform="translate(-840.35 -435.915)"/><path class="o" d="M834.139,353.128a1.117,1.117,0,1,1-1.117,1.117,1.117,1.117,0,0,1,1.117-1.117Z" transform="translate(-822.275 -349.827)"/><path class="p" d="M835.858,355.257a.708.708,0,1,1-.708.708.708.708,0,0,1,.708-.708Z" transform="translate(-823.994 -351.546)"/></g></g></svg>