<svg xmlns="http://www.w3.org/2000/svg" width="47.443" height="49.646" viewBox="0 0 47.443 49.646"><defs><style>.a{fill:#ddd;}</style></defs><g transform="translate(-11.36)"><g transform="translate(11.36)"><g transform="translate(0)"><path class="a" d="M246.97,5.385a.97.97,0,0,0,.97-.97V.97A.97.97,0,1,0,246,.97V4.416A.97.97,0,0,0,246.97,5.385Z" transform="translate(-223.248)"/><path class="a" d="M342.2,35.845a.97.97,0,0,0,1.368-.1l2.413-2.775a.97.97,0,0,0-1.464-1.272L342.1,34.477A.97.97,0,0,0,342.2,35.845Z" transform="translate(-309.816 -28.327)"/><path class="a" d="M413.581,123.843a.966.966,0,0,0,.483-.129l3.19-1.836a.97.97,0,0,0-.967-1.681l-3.19,1.836a.97.97,0,0,0,.484,1.81Z" transform="translate(-373.703 -108.425)"/><path class="a" d="M447.3,235.933H443.62a.97.97,0,1,0,0,1.939H447.3a.97.97,0,0,0,0-1.939Z" transform="translate(-400.83 -213.056)"/><path class="a" d="M127.906,35.75a.97.97,0,0,0,1.464-1.272L126.957,31.7a.97.97,0,0,0-1.464,1.272Z" transform="translate(-114.212 -28.327)"/><path class="a" d="M46.973,121.876l3.19,1.836a.97.97,0,1,0,.967-1.681l-3.19-1.836a.97.97,0,0,0-.967,1.681Z" transform="translate(-43.081 -108.423)"/><path class="a" d="M16.983,236.9a.97.97,0,0,0-.97-.97H12.33a.97.97,0,1,0,0,1.939h3.684A.97.97,0,0,0,16.983,236.9Z" transform="translate(-11.36 -213.056)"/><path class="a" d="M89.455,112.66v-1.221a3.779,3.779,0,0,0-3.17-3.725V91.782A14.605,14.605,0,0,0,71.7,77.194h-.043A14.605,14.605,0,0,0,57.065,91.782v15.932a3.779,3.779,0,0,0-3.17,3.725v1.221a2.83,2.83,0,0,0-2.012,2.706v3.02a.97.97,0,0,0,.97.97H67.291a.97.97,0,0,0,0-1.939H53.821v-2.05a.887.887,0,0,1,.885-.885H88.642a.886.886,0,0,1,.885.885v2.05H76.058a.97.97,0,0,0,0,1.939H90.5a.97.97,0,0,0,.97-.97v-3.02a2.83,2.83,0,0,0-2.012-2.706ZM59,91.783A12.664,12.664,0,0,1,71.653,79.133H71.7A12.664,12.664,0,0,1,84.345,91.783v15.884H74.459v-7.212a5.293,5.293,0,0,0,2.448-4.464,5.232,5.232,0,0,0-10.464,0,5.293,5.293,0,0,0,2.448,4.464v7.212H59ZM70.272,99a3.376,3.376,0,0,1-1.891-3.014,3.293,3.293,0,0,1,6.586,0A3.376,3.376,0,0,1,73.077,99a.97.97,0,0,0-.557.878v7.785H70.83V99.882A.969.969,0,0,0,70.272,99Zm-12.6,10.6H85.681a1.836,1.836,0,0,1,1.834,1.834v1.1H55.834v-1.1A1.836,1.836,0,0,1,57.668,109.605Z" transform="translate(-47.953 -69.709)"/><path class="a" d="M247.7,492.606a.969.969,0,1,0-.357,1.176A.976.976,0,0,0,247.7,492.606Z" transform="translate(-223.097 -444.299)"/></g></g></g></svg>