<svg xmlns="http://www.w3.org/2000/svg" width="62.533" height="61.915" viewBox="0 0 62.533 61.915"><defs><style>.a{fill:#ddd;}</style></defs><g transform="translate(-802.962 -392.597)"><g transform="translate(802.962 392.597)"><g transform="translate(0 11.459)"><path class="a" d="M61.6,131.277h-.993v-7.325a4.376,4.376,0,0,0-4.376-4.376H53.773l.5-1.365h3.59a3.754,3.754,0,0,0,3.749-3.861,2.74,2.74,0,0,0-2.749-2.64H55.453A2.751,2.751,0,0,0,52.7,114.46v2.655l-.217.587-2.619-7.865a5.033,5.033,0,0,0-3.464-3.273v-1.29h3.1a.929.929,0,0,0,.929-.929V97.288a.929.929,0,0,0-.929-.929H13.031a.929.929,0,0,0-.929.929v7.058a.929.929,0,0,0,.929.929h3.1v1.29a5.034,5.034,0,0,0-3.464,3.273L10.047,117.7l-.217-.586v-2.655a2.751,2.751,0,0,0-2.751-2.751H3.665a2.74,2.74,0,0,0-2.749,2.64,3.754,3.754,0,0,0,3.749,3.861h3.59l.5,1.365H6.3a4.376,4.376,0,0,0-4.376,4.376v2.526a.929.929,0,1,0,1.857,0v-2.526A2.519,2.519,0,0,1,6.3,121.433h49.94a2.519,2.519,0,0,1,2.519,2.519v7.325H46.311v-7.43a.929.929,0,0,0-.929-.929H39.254a.929.929,0,0,0,0,1.857h5.2v6.5H18.079v-6.5H34.92a.929.929,0,1,0,0-1.857H17.15a.929.929,0,0,0-.929.929v7.43H3.778v-.466a.929.929,0,0,0-1.857,0v.466H.929a.929.929,0,0,0-.929.929v6.128a.929.929,0,0,0,.929.929h2.6v4.773a2.779,2.779,0,0,0,2.779,2.779h7.135a2.779,2.779,0,0,0,2.779-2.779v-4.773h1.611a3.535,3.535,0,0,0,3.4,2.6H41.295a3.535,3.535,0,0,0,3.4-2.6h1.611v4.773a2.779,2.779,0,0,0,2.779,2.779h7.135A2.779,2.779,0,0,0,59,144.036v-4.773h2.6a.929.929,0,0,0,.929-.929v-6.128A.929.929,0,0,0,61.6,131.277ZM54.56,114.46a.894.894,0,0,1,.893-.893h3.414a.894.894,0,0,1,.893.893,1.9,1.9,0,0,1-1.893,1.893H54.56V114.46ZM7.972,116.353H4.665a1.9,1.9,0,0,1-1.893-1.893.894.894,0,0,1,.893-.893H7.079a.894.894,0,0,1,.893.893ZM40.2,98.216h8.37v5.2H40.2Zm-16.016,0H38.345v5.2H24.187Zm15.087,7.058h5.272v1.114H17.986v-1.114H39.274ZM13.96,103.417v-5.2h8.37v5.2H13.96Zm4.676,16.159.826-1.486H43.071l.826,1.486Zm27.385,0-1.592-2.866a.928.928,0,0,0-.812-.478h-24.7a.929.929,0,0,0-.812.478l-1.592,2.866H11.38l3.047-9.152a3.179,3.179,0,0,1,3.021-2.178H45.084a3.179,3.179,0,0,1,3.021,2.178l3.047,9.152Zm5.119,13.559H54.3v6.5H51.14Zm-42.9,0h3.157v6.5H8.235Zm-6.378,4.271v-4.271H6.378v4.271Zm12.507,6.63a.922.922,0,0,1-.921.921H6.308a.922.922,0,0,1-.921-.921v-4.773h.991v1.3a.929.929,0,0,0,.929.929h5.015a.929.929,0,0,0,.929-.929v-1.3h1.114ZM41.3,140.006H21.237a1.672,1.672,0,0,1-1.39-.743H42.685A1.672,1.672,0,0,1,41.3,140.006Zm2.6-2.6H13.25v-4.271H49.283v4.271Zm13.25,6.63h0a.922.922,0,0,1-.921.921H49.09a.922.922,0,0,1-.921-.921v-4.773h1.114v1.3a.929.929,0,0,0,.929.929h5.015a.929.929,0,0,0,.929-.929v-1.3h.991Zm3.53-6.63H56.155v-4.271h4.521v4.271Z" transform="translate(0 -96.359)"/></g><g transform="translate(30.337 0)"><path class="a" d="M249.32,2.534a.929.929,0,0,0-.929.929v5.7a.929.929,0,1,0,1.857,0v-5.7A.929.929,0,0,0,249.32,2.534Z" transform="translate(-248.391 -2.534)"/></g><g transform="translate(20.842 1.638)"><path class="a" d="M174.346,21.94l-1.9-5.377a.929.929,0,1,0-1.752.618l1.9,5.377a.929.929,0,0,0,1.752-.618Z" transform="translate(-170.645 -15.943)"/></g><g transform="translate(37.936 1.638)"><g transform="translate(0 0)"><path class="a" d="M313.74,16a.929.929,0,0,0-1.185.567l-1.9,5.377a.929.929,0,1,0,1.752.618l1.9-5.377A.929.929,0,0,0,313.74,16Z" transform="translate(-310.606 -15.943)"/></g></g><g transform="translate(47.797 38.019)"><path class="a" d="M400.068,313.819h-7.8a.929.929,0,0,0-.929.929v4.086a.929.929,0,0,0,.929.929h7.8a.929.929,0,0,0,.929-.929v-4.086A.929.929,0,0,0,400.068,313.819Zm-.929,4.086H393.2v-2.229h5.943Z" transform="translate(-391.339 -313.819)"/></g><g transform="translate(5.078 38.019)"><path class="a" d="M50.3,313.819H42.5a.929.929,0,0,0-.929.929v4.086a.929.929,0,0,0,.929.929h7.8a.929.929,0,0,0,.929-.929v-4.086A.929.929,0,0,0,50.3,313.819Zm-.929,4.086H43.431v-2.229h5.943v2.229Z" transform="translate(-41.574 -313.819)"/></g></g></g></svg>