<svg xmlns="http://www.w3.org/2000/svg" width="74.638" height="23.617" viewBox="0 0 74.638 23.617"><defs><style>.a{fill:#362e42;}.b{fill:#484057;}.c{fill:#a9acbd;}.d{fill:#9fa1b6;}.e{fill:#ebe6ee;}.f{fill:#d13c59;}.g{fill:#a72c39;}.h{fill:#5f7cb4;}.i{fill:#3c3e43;}.j{fill:#48454f;}.k{fill:#617582;}.l{fill:#596166;}.m{fill:#484f5d;}.n{fill:#6a6d93;}.o{fill:#6e739f;}.p{fill:#ffb374;}.q{fill:#3f4b70;}.r{fill:#474670;}.s{fill:#5e5e89;}.t{fill:#e1deee;}.u{fill:#5b637d;}.v{fill:#aac2db;}.w{fill:#d0cce6;}.x{fill:#ffa655;}.y{fill:#ffbd55;}.z{fill:#ff614f;}.aa{fill:#ff8366;}.ab{opacity:0.96;}.ac{fill:#c1cfe3;}.ad{fill:#2f1d2f;}.ae{fill:#a9acbe;}.af{fill:#9d9aad;}</style></defs><g transform="translate(0 0)"><g transform="translate(18.208 6.66)"><path class="a" d="M362.614,415.716a4.628,4.628,0,0,0,1.628.083c.358-.029.522-.128.57-.256.1-.265-.308-.653-.539-.8-.433-.268-1.658-.708-1.889-.173a.855.855,0,0,0-.062.212A1.262,1.262,0,0,0,362.614,415.716Z" transform="translate(-362.309 -414.322)"/><path class="b" d="M362.367,414.786a6.68,6.68,0,0,1,2.49.756c.1-.265-.308-.653-.539-.8-.433-.268-1.658-.708-1.889-.173A.849.849,0,0,0,362.367,414.786Z" transform="translate(-362.355 -414.322)"/></g><g transform="translate(0 0)"><g transform="translate(32.989)"><g transform="translate(0 1.458)"><path class="c" d="M434.823,389.068v.267a.264.264,0,0,0,.264.264h1.192v1.591h.934V389.6h12.709v1.591h.934V389.6h1.094a.264.264,0,0,0,.263-.264v-.267a.264.264,0,0,0-.263-.264H435.087A.264.264,0,0,0,434.823,389.068Z" transform="translate(-434.823 -388.804)"/><rect class="d" width="0.934" height="1.591" transform="translate(15.1 0.796)"/><rect class="d" width="0.934" height="1.591" transform="translate(1.456 0.796)"/></g><path class="e" d="M439.271,383.112h13.909l.6-1.457h-13.62Z" transform="translate(-438.365 -381.654)"/><path class="f" d="M481.121,383.112H486.5l.6-1.457H482Z" transform="translate(-471.683 -381.654)"/><path class="g" d="M508.835,383.111l-.719-1.458h-.983l-.6,1.458Z" transform="translate(-491.915 -381.653)"/><path class="h" d="M439.271,383.112h4.339l1.011-1.457h-4.461Z" transform="translate(-438.365 -381.654)"/></g><g transform="translate(45.125 13.8)"><path class="i" d="M499.912,473.227h-1.971a3.192,3.192,0,0,1-2.175-.856,5.688,5.688,0,0,1-1.405-4.059C494.361,464.4,499.949,470.254,499.912,473.227Z" transform="translate(-494.361 -463.41)"/><g transform="translate(1.679)"><ellipse class="j" cx="3.873" cy="4.909" rx="3.873" ry="4.909"/><ellipse class="k" cx="2.432" cy="3.082" rx="2.432" ry="3.082" transform="translate(1.634 1.826)"/><ellipse class="l" cx="1.687" cy="2.62" rx="1.687" ry="2.62" transform="translate(1.634 2.289)"/><path class="m" d="M512.251,458.369a.2.2,0,0,0,.176-.13,5.4,5.4,0,0,0,.46-2.2c0-2.456-1.576-4.454-3.514-4.454a3.5,3.5,0,0,0-3.106,2.367.294.294,0,0,0,.084.347.184.184,0,0,0,.274-.106,3.1,3.1,0,0,1,2.748-2.094c1.714,0,3.109,1.767,3.109,3.94a4.78,4.78,0,0,1-.407,1.95.3.3,0,0,0,.075.351A.171.171,0,0,0,512.251,458.369Z" transform="translate(-505.501 -451.126)"/></g></g><g transform="translate(6.836 13.8)"><path class="i" d="M312.071,473.227H310.1a3.192,3.192,0,0,1-2.175-.856,5.688,5.688,0,0,1-1.405-4.059C306.52,464.4,312.108,470.254,312.071,473.227Z" transform="translate(-306.52 -463.41)"/><g transform="translate(1.679)"><ellipse class="j" cx="3.873" cy="4.909" rx="3.873" ry="4.909"/><ellipse class="k" cx="2.432" cy="3.082" rx="2.432" ry="3.082" transform="translate(1.634 1.826)"/><ellipse class="l" cx="1.687" cy="2.62" rx="1.687" ry="2.62" transform="translate(1.634 2.289)"/><path class="m" d="M324.41,458.369a.2.2,0,0,0,.176-.13,5.406,5.406,0,0,0,.46-2.2c0-2.456-1.577-4.454-3.514-4.454a3.5,3.5,0,0,0-3.105,2.367.294.294,0,0,0,.084.347.183.183,0,0,0,.274-.106,3.1,3.1,0,0,1,2.748-2.094c1.714,0,3.109,1.767,3.109,3.94a4.782,4.782,0,0,1-.407,1.95.3.3,0,0,0,.076.351A.17.17,0,0,0,324.41,458.369Z" transform="translate(-317.66 -451.126)"/></g></g><path class="n" d="M287.892,411.08H275.657a10.565,10.565,0,0,1,.167-5.938,6.31,6.31,0,0,1,.827-1.575,3.686,3.686,0,0,1,.622-.686c4.41-1.888,10.735-2.37,13.112-2.607.421-.042.845-.076,1.285-.109l.059-.005.1-.007c2.96,0,7.006-5.539,14.288-5.539h9.061C316.062,402.057,287.892,411.08,287.892,411.08Z" transform="translate(-274.848 -391.971)"/><path class="o" d="M295.135,424.513H284.884c4.41-1.888,10.735-2.37,13.112-2.608.6-.053,1.059-.09,1.285-.109.023,0,.042,0,.06-.005l.1-.007h12.5C312.953,425.052,295.135,424.513,295.135,424.513Z" transform="translate(-282.459 -413.604)"/><path class="p" d="M292.024,438.534v1.575H277.775a6.306,6.306,0,0,1,.827-1.575Z" transform="translate(-276.799 -426.939)"/><path class="i" d="M385.383,473.227h-2.134a3.016,3.016,0,0,1-2.115-.856,5.445,5.445,0,0,1-1.521-4.059C379.613,464.4,385.423,470.254,385.383,473.227Z" transform="translate(-357.878 -449.61)"/><path class="i" d="M561.118,474.2h-2.134a3.083,3.083,0,0,1-2.115-.822,5.117,5.117,0,0,1-1.521-3.9C555.347,465.731,561.157,471.346,561.118,474.2Z" transform="translate(-497.79 -450.583)"/><path class="q" d="M355.7,468.6H336.975c.028-.074.057-.147.088-.219Z" transform="translate(-323.931 -450.701)"/><path class="r" d="M402.3,410.364l-42.006-.5-15.965-.219-1.563.48a41.818,41.818,0,0,1,.079-4.212h.224l.206-.777.417-1.575.169-.637s1.521-2.046,14.148-2.777h0a8.354,8.354,0,0,0,2.171-1.225,45.946,45.946,0,0,1,4.485-3.076,8.4,8.4,0,0,1,4.315-1.236h15.5c2.188,0,3.38.986,4.819,2.649l2.962,2.527c3.774.31,6.223,1.126,6.986,2.047q.433.522.79,1.043a14.068,14.068,0,0,1,1.594,3.038h1.03A7.756,7.756,0,0,1,402.3,410.364Z" transform="translate(-328.525 -391.97)"/><path class="s" d="M404.392,402.879l-56.177.048s1.521-2.046,14.148-2.777h0a8.359,8.359,0,0,0,2.171-1.225,45.932,45.932,0,0,1,4.485-3.076,8.4,8.4,0,0,1,4.315-1.236h15.5c2.188,0,3.4.8,5.232,2.558l2.549,2.619c3.774.31,6.223,1.126,6.986,2.047Q404.035,402.358,404.392,402.879Z" transform="translate(-332.88 -391.97)"/><rect class="a" width="58.217" height="0.206" transform="translate(14.331 14.384)"/><path class="t" d="M320.74,438.533l-.282,1.576h-4.229v-1.576Z" transform="translate(-307.414 -426.939)"/><path class="t" d="M285.5,438.533l-.282,1.576h-2.455l.43-1.576Z" transform="translate(-280.773 -426.939)"/><path class="a" d="M346.869,469.864h-72.6a.626.626,0,0,1-.69-.635l.014-.147a.784.784,0,0,1,.809-.635H347a.626.626,0,0,1,.69.635l-.014.147A.784.784,0,0,1,346.869,469.864Z" transform="translate(-273.459 -450.756)"/><path class="u" d="M612.927,450.6h-5.705l-.838-1.691h6.678Z" transform="translate(-538.424 -435.2)"/><path class="u" d="M294.073,450.263H273.359a.373.373,0,0,1-.366-.446l.151-.763a.6.6,0,0,1,.588-.482h20.475Z" transform="translate(-272.986 -434.931)"/><path class="t" d="M427.575,421.992l-.037.1c-.265.692-1.715,4.943-.9,8.447h21.4s1.737-.27,4.135-2.82a59.039,59.039,0,0,0,2.59-5.621c.013-.034.025-.068.038-.1Z" transform="translate(-395.123 -413.769)"/><g transform="translate(44.488 3.433)"><path class="a" d="M493.93,398.5H495.2l-.108,4.789h-3.6Z" transform="translate(-491.446 -398.496)"/><path class="a" d="M493.56,399l-2.327,4.584h.213l1.726-3.4s0,0,0,0c.181-.539.334-.971.407-1.178Zm1.526,0h-.018c-.034.167-.111.56-.2,1.071l-.079,3.513h.194Z" transform="translate(-491.233 -398.897)"/></g><g transform="translate(32.534 3.433)"><path class="v" d="M447.028,398.494s-.164.455-.388,1.112h0c-.361,1.062-.877,2.646-1.1,3.677H432.589s4.186-4.062,6.632-4.7a2.329,2.329,0,0,1,.589-.085h7.218Z" transform="translate(-432.589 -398.494)"/></g><g transform="translate(47.75 3.536)"><path class="v" d="M515.128,403.583h-7.891a23.1,23.1,0,0,1,.374-3.513c.088-.511.165-.9.2-1.071h6.937c0,.01,0,.022.007.037.05.306.226,1.415.318,2.755h0C515.11,402.362,515.134,402.973,515.128,403.583Z" transform="translate(-507.237 -398.999)"/><path class="v" d="M549.873,404.168h-3.406c.011-.789-.03-1.574-.088-2.269-.082-.988-.2-1.792-.262-2.164a7.324,7.324,0,0,1,1.2.9,10.191,10.191,0,0,1,1.245,1.38A12.878,12.878,0,0,1,549.873,404.168Z" transform="translate(-538.192 -399.585)"/></g><path class="w" d="M495.843,422.494c-.01.046-.948,4.666-1.29,8.442h0l-.192,0c.334-3.691,1.232-8.167,1.287-8.441h.195Z" transform="translate(-449.236 -414.169)"/><g transform="translate(42.6 9.197)"><path class="c" d="M484.563,426.915l-.037.461a.157.157,0,0,1-.149.146H482.1a.129.129,0,0,1-.126-.146l.036-.461a.157.157,0,0,1,.149-.146h2.276A.13.13,0,0,1,484.563,426.915Z" transform="translate(-481.975 -426.769)"/><path class="d" d="M484.545,428.615l-.018.231a.157.157,0,0,1-.149.146H482.1a.129.129,0,0,1-.126-.146l.018-.231Z" transform="translate(-481.975 -428.239)"/></g><g transform="translate(55.489 9.197)"><path class="c" d="M547.792,426.915l-.036.461a.157.157,0,0,1-.149.146h-2.276a.13.13,0,0,1-.127-.146l.037-.461a.157.157,0,0,1,.149-.146h2.275A.13.13,0,0,1,547.792,426.915Z" transform="translate(-545.203 -426.769)"/><path class="d" d="M547.774,428.615l-.018.231a.157.157,0,0,1-.149.146h-2.276a.13.13,0,0,1-.127-.146l.019-.231Z" transform="translate(-545.203 -428.239)"/></g><path class="x" d="M346.685,440.107h-1.34l.417-1.575h.9A4.224,4.224,0,0,1,346.685,440.107Z" transform="translate(-330.595 -426.938)"/><path class="y" d="M625.66,438.816l-.659-.145c-.172-.045-.4-.406-.473-.575a1.185,1.185,0,0,1-.059-.178,2.911,2.911,0,0,1-.023-1.377,4.947,4.947,0,0,1,.959,1.377A2.953,2.953,0,0,1,625.66,438.816Z" transform="translate(-552.746 -425.352)"/><path class="z" d="M625.4,437.918h-.936a2.911,2.911,0,0,1-.023-1.377A4.947,4.947,0,0,1,625.4,437.918Z" transform="translate(-552.746 -425.352)"/><g transform="translate(28.679 10.681)"><path class="aa" d="M415.177,434.275a.249.249,0,0,1-.074.158.224.224,0,0,1-.154.066h-1.078a.176.176,0,0,1-.078-.018.158.158,0,0,1-.046-.03.208.208,0,0,1-.068-.177.249.249,0,0,1,.074-.16.216.216,0,0,1,.153-.065h1.078a.186.186,0,0,1,.168.1.11.11,0,0,1,.011.025A.205.205,0,0,1,415.177,434.275Z" transform="translate(-413.678 -434.05)"/><path class="z" d="M415.572,434.708a.248.248,0,0,1-.074.158.224.224,0,0,1-.154.066h-1.078a.175.175,0,0,1-.078-.018.214.214,0,0,1-.013-.1.248.248,0,0,1,.074-.158.219.219,0,0,1,.154-.066h1.077a.164.164,0,0,1,.078.018A.2.2,0,0,1,415.572,434.708Z" transform="translate(-414.073 -434.483)"/></g><g transform="translate(36.103 11.719)"><path class="r" d="M450.1,439.338a5.356,5.356,0,0,1,.826-.06,1.506,1.506,0,0,1,.951.257.845.845,0,0,1,.324.647.834.834,0,0,1-.227.66,1.394,1.394,0,0,1-1.006.339,1.627,1.627,0,0,1-.349-.028l.059,1.238h-.432Zm.5,1.49a1.583,1.583,0,0,0,.359.032c.521,0,.828-.234.807-.66-.02-.408-.342-.605-.818-.605a1.939,1.939,0,0,0-.406.032Z" transform="translate(-450.097 -439.25)"/><path class="r" d="M466.705,440.707a1.419,1.419,0,0,1-1.476,1.628,1.551,1.551,0,0,1-1.579-1.569,1.437,1.437,0,0,1,1.476-1.623A1.54,1.54,0,0,1,466.705,440.707Zm-2.594.05a1.2,1.2,0,0,0,1.127,1.252c.685,0,1.044-.583,1.011-1.284a1.2,1.2,0,0,0-1.127-1.257C464.407,439.469,464.079,440.079,464.112,440.757Z" transform="translate(-460.886 -439.143)"/><path class="r" d="M482.264,439.391h.432l.132,2.756h1.43l.016.335h-1.862Z" transform="translate(-475.707 -439.34)"/><path class="r" d="M503.149,439.47l.148,3.091h-.432l-.148-3.091Z" transform="translate(-491.991 -439.403)"/><path class="r" d="M511.747,442.262a2.237,2.237,0,0,1-.877.147,1.593,1.593,0,0,1-1.728-1.564,1.518,1.518,0,0,1,1.67-1.623,1.971,1.971,0,0,1,.8.138l-.089.325a1.732,1.732,0,0,0-.681-.128,1.132,1.132,0,0,0-1.245,1.275,1.235,1.235,0,0,0,1.345,1.243,1.808,1.808,0,0,0,.7-.128Z" transform="translate(-497.105 -439.206)"/><path class="r" d="M526.912,441.112h-1.3l.053,1.115h1.45l.016.335h-1.882l-.148-3.091h1.807l.016.335h-1.375l.047.977h1.3Z" transform="translate(-509.812 -439.403)"/></g><g class="ab" transform="translate(60.082 9.428)"><path class="t" d="M568.2,428.431h-.293l.054.31h.326l.016.093h-.423l-.15-.861h.407l.016.093h-.31l.047.272h.293Z" transform="translate(-567.735 -427.96)"/><path class="t" d="M571.55,428.457c-.026-.12-.058-.264-.076-.372h0c-.008.1-.021.208-.038.327l-.06.418H571.3l-.193-.41c-.057-.121-.106-.232-.145-.334h0c.017.107.036.251.052.381l.044.369h-.093l-.1-.861h.124l.2.416c.05.106.092.2.126.29h0c0-.087.014-.181.029-.29l.062-.416h.124l.2.861h-.1Z" transform="translate(-570.226 -427.96)"/><path class="t" d="M575.854,428.431h-.293l.054.31h.326l.016.093h-.424l-.15-.861h.407l.016.093h-.31l.048.272h.292Z" transform="translate(-573.825 -427.96)"/><path class="t" d="M578.363,427.961a.846.846,0,0,1,.183-.018.327.327,0,0,1,.23.07.277.277,0,0,1,.088.164.184.184,0,0,1-.1.219v0a.269.269,0,0,1,.141.174,1.791,1.791,0,0,0,.1.236h-.1a1.445,1.445,0,0,1-.086-.206c-.043-.119-.091-.163-.18-.167h-.092l.065.373h-.1Zm.166.392h.1a.129.129,0,0,0,.141-.163.186.186,0,0,0-.2-.161.328.328,0,0,0-.094.01Z" transform="translate(-576.197 -427.935)"/><path class="t" d="M582.4,428.761a.56.56,0,0,1-.223.047.425.425,0,0,1-.3-.114.577.577,0,0,1-.161-.321c-.044-.257.078-.444.331-.444a.458.458,0,0,1,.195.04l-.008.091a.389.389,0,0,0-.173-.037c-.183,0-.28.13-.243.346a.368.368,0,0,0,.351.347.26.26,0,0,0,.126-.023l-.045-.257h-.153l-.015-.089h.248Z" transform="translate(-578.854 -427.925)"/><path class="t" d="M585.875,428.431h-.293l.054.31h.326l.016.093h-.424l-.15-.861h.407l.016.093h-.31l.048.272h.293Z" transform="translate(-581.803 -427.96)"/><path class="t" d="M588.525,428.835l-.15-.861h.106l.317.435a3.187,3.187,0,0,1,.184.279h0c-.029-.115-.049-.219-.073-.354l-.063-.36h.092l.15.861h-.1l-.315-.437c-.07-.1-.137-.194-.191-.287h0c.024.109.045.212.07.355l.064.368Z" transform="translate(-584.168 -427.96)"/><path class="t" d="M593.011,428.752a.386.386,0,0,1-.192.041.468.468,0,0,1-.448-.436c-.047-.269.081-.452.314-.452a.4.4,0,0,1,.186.038l-.008.09a.357.357,0,0,0-.158-.036c-.176,0-.271.129-.232.355a.365.365,0,0,0,.35.346.309.309,0,0,0,.152-.036Z" transform="translate(-587.342 -427.905)"/><path class="t" d="M595.764,428.835l-.063-.365-.324-.5h.111l.148.237c.04.065.072.117.106.177h0c.011-.056.027-.112.045-.177l.067-.237h.111l-.166.494.064.366Z" transform="translate(-589.742 -427.96)"/><path class="t" d="M600.592,428.82a.341.341,0,0,0,.078,0,.21.21,0,0,0,.138-.08.327.327,0,0,0,.058-.221h0a.167.167,0,0,1-.156.089.282.282,0,0,1-.258-.254c-.028-.157.048-.3.2-.3s.264.138.3.35a.5.5,0,0,1-.057.389.279.279,0,0,1-.192.111.388.388,0,0,1-.089.007Zm-.047-.478a.188.188,0,0,0,.17.176.128.128,0,0,0,.128-.087.075.075,0,0,0,0-.041c-.025-.142-.09-.25-.192-.25C600.568,428.141,600.524,428.225,600.544,428.342Z" transform="translate(-593.775 -428.024)"/><path class="t" d="M603.891,428.229h0l-.113.078-.034-.086.142-.1h.084l.145.83h-.1Z" transform="translate(-596.402 -428.079)"/><path class="t" d="M606.976,428.229h0l-.113.078-.034-.086.142-.1h.084l.144.83h-.1Z" transform="translate(-598.859 -428.079)"/></g><g transform="translate(35.691 3.433)"><path class="ac" d="M455.174,398.494l-3.537,4.79h-3.559l3.475-4.7a2.328,2.328,0,0,1,.589-.085Z" transform="translate(-448.078 -398.494)"/><path class="ac" d="M482.449,398.494s-.164.455-.388,1.112h0l-2.715,3.677h-2.266l3.537-4.79Z" transform="translate(-471.168 -398.494)"/><path class="ac" d="M517.1,399.036l-3.357,4.547h-3.558L513.571,399h3.523C517.1,399.009,517.1,399.021,517.1,399.036Z" transform="translate(-497.526 -398.896)"/><path class="ac" d="M540.506,412.7c.039.57.063,1.181.056,1.79h-1.379Z" transform="translate(-520.612 -409.806)"/><path class="ac" d="M549.583,405.537l-1.59,2.152h-.5c.011-.789-.029-1.575-.088-2.269l.933-1.263A10.2,10.2,0,0,1,549.583,405.537Z" transform="translate(-527.157 -403.003)"/></g><path class="a" d="M459.356,402.834a11.092,11.092,0,0,0-4.19-4.833.087.087,0,0,0-.039-.01H439.44c-2.3,0-7.088,4.623-7.29,4.819a.114.114,0,0,0-.031.112.093.093,0,0,0,.055.06.151.151,0,0,0,.03,0H459.26a.105.105,0,0,0,.087-.049A.11.11,0,0,0,459.356,402.834Zm-26.9-.055a38.865,38.865,0,0,1,3.281-2.759,15.073,15.073,0,0,0-.849,2.759Zm13.647-3.406s0,0,0,0c-.347,1.027-.8,2.438-1.017,3.4h-9.809a19.413,19.413,0,0,1,.994-3.141h0a6.786,6.786,0,0,1,3.151-1.442h7.089C446.439,398.4,446.287,398.835,446.105,399.373Zm1.322,3.406a23.128,23.128,0,0,1,.374-3.513c.088-.511.165-.9.2-1.071h6.937a28.435,28.435,0,0,1,.381,4.584Zm8.276,0a27.319,27.319,0,0,0-.351-4.434,10.971,10.971,0,0,1,3.756,4.434Z" transform="translate(-399.677 -394.66)"/><path class="ad" d="M502,397.99c-.567,2.243-1.051,4.624-1.125,4.995h-.195c.054-.268.546-2.7,1.124-4.995Z" transform="translate(-454.264 -394.66)"/><g transform="translate(32.437 7.063)"><path class="a" d="M434.326,417.7a4.631,4.631,0,0,1-1.628.083c-.358-.029-.522-.128-.569-.256-.1-.265.308-.653.539-.8.433-.268,1.658-.708,1.889-.173a.84.84,0,0,1,.062.212A1.262,1.262,0,0,1,434.326,417.7Z" transform="translate(-432.114 -416.303)"/><path class="b" d="M434.619,416.768a6.672,6.672,0,0,0-2.49.756c-.1-.265.308-.653.539-.8.433-.268,1.658-.708,1.889-.173A.84.84,0,0,1,434.619,416.768Z" transform="translate(-432.114 -416.303)"/></g><path class="a" d="M560.785,451.3h9.324c-.214-2.822-2.219-5.034-4.662-5.034S561,448.479,560.785,451.3Z" transform="translate(-502.12 -433.097)"/><g transform="translate(59.176 13.8)"><ellipse class="j" cx="4.151" cy="4.909" rx="4.151" ry="4.909"/><ellipse class="k" cx="2.606" cy="3.082" rx="2.606" ry="3.082" transform="translate(1.751 1.826)"/><ellipse class="l" cx="2.215" cy="2.62" rx="2.215" ry="2.62" transform="translate(2.141 2.289)"/><ellipse class="ae" cx="1.381" cy="1.634" rx="1.381" ry="1.634" transform="translate(2.976 3.275)"/><path class="m" d="M573.641,458.369a.214.214,0,0,0,.189-.13,5.1,5.1,0,0,0,.493-2.2c0-2.456-1.69-4.454-3.766-4.454a3.731,3.731,0,0,0-3.328,2.367.282.282,0,0,0,.09.347.2.2,0,0,0,.294-.106,3.3,3.3,0,0,1,2.944-2.094c1.837,0,3.332,1.767,3.332,3.94a4.512,4.512,0,0,1-.436,1.95.283.283,0,0,0,.081.351A.191.191,0,0,0,573.641,458.369Z" transform="translate(-566.406 -451.126)"/></g><path class="a" d="M385.051,451.3h9.324c-.214-2.822-2.219-5.034-4.663-5.034S385.265,448.479,385.051,451.3Z" transform="translate(-362.207 -433.097)"/><g transform="translate(23.355 13.8)"><ellipse class="j" cx="4.151" cy="4.909" rx="4.151" ry="4.909"/><ellipse class="k" cx="2.606" cy="3.082" rx="2.606" ry="3.082" transform="translate(1.751 1.826)"/><ellipse class="l" cx="2.215" cy="2.62" rx="2.215" ry="2.62" transform="translate(2.142 2.289)"/><ellipse class="ae" cx="1.381" cy="1.634" rx="1.381" ry="1.634" transform="translate(2.976 3.275)"/><path class="m" d="M397.906,458.369a.214.214,0,0,0,.189-.13,5.1,5.1,0,0,0,.493-2.2c0-2.456-1.69-4.454-3.766-4.454a3.732,3.732,0,0,0-3.328,2.367.282.282,0,0,0,.09.347.2.2,0,0,0,.294-.106,3.3,3.3,0,0,1,2.945-2.094c1.837,0,3.332,1.767,3.332,3.94a4.511,4.511,0,0,1-.436,1.95.284.284,0,0,0,.081.351A.191.191,0,0,0,397.906,458.369Z" transform="translate(-390.671 -451.126)"/></g><g transform="translate(3.77 11.595)"><path class="c" d="M299.345,438.533l-.025.11-.041.183-.039.175-.041.183-.053.236-.041.183-.048.213-.041.183-.025.11h-7.512l.025-.11.041-.183.048-.213.041-.183.053-.236.041-.183.04-.175.041-.183.025-.11Z" transform="translate(-291.479 -438.533)"/><g transform="translate(0.025 0.11)"><path class="af" d="M299.152,444.826l-.041.183H291.6l.041-.183Z" transform="translate(-291.599 -443.653)"/><path class="af" d="M299.591,442.885l-.041.183h-7.512l.041-.183Z" transform="translate(-291.949 -442.108)"/><path class="af" d="M300.055,440.828l-.041.183H292.5l.041-.183Z" transform="translate(-292.318 -440.47)"/><path class="af" d="M300.452,439.073l-.041.183H292.9l.041-.183Z" transform="translate(-292.635 -439.073)"/></g></g></g><g transform="translate(19.549 3.434)"><path class="v" d="M384.735,398.643a24.639,24.639,0,0,0-3.078,1.868c-1.4.95-2.774,1.959-3.323,2.366a.941.941,0,0,1-.559.185h-8.713a.175.175,0,0,1-.091-.323,52.137,52.137,0,0,1,4.964-2.871h0a17.455,17.455,0,0,1,3.272-1.33,1.348,1.348,0,0,1,.338-.043h7.159A.077.077,0,0,1,384.735,398.643Z" transform="translate(-368.891 -398.496)"/><path class="ac" d="M389,398.5l-3.372,4.566h-3.559l2.358-3.193h0a17.451,17.451,0,0,1,3.272-1.33,1.348,1.348,0,0,1,.338-.043Z" transform="translate(-379.384 -398.496)"/><path class="ac" d="M416.723,398.528l-1.484,1.984c-1.4.95-2.774,1.959-3.323,2.366a.941.941,0,0,1-.559.185h-.286l3.372-4.566c1.068,0,1.828.055,1.828.055Z" transform="translate(-402.474 -398.496)"/><path class="a" d="M384.131,398.715c-.637.343-1.488.878-2.589,1.626-1.417.962-2.8,1.979-3.33,2.371a.738.738,0,0,1-.437.145h-8.606a52.151,52.151,0,0,1,4.846-2.8l.012-.006a17.221,17.221,0,0,1,3.232-1.315,1.126,1.126,0,0,1,.287-.037h6.609Zm.575-.219h-7.159a1.348,1.348,0,0,0-.338.043,17.455,17.455,0,0,0-3.272,1.33h0a52.137,52.137,0,0,0-4.964,2.871.175.175,0,0,0,.091.323h8.713a.941.941,0,0,0,.559-.185c.549-.407,1.924-1.416,3.323-2.366a24.639,24.639,0,0,1,3.078-1.868.077.077,0,0,0-.029-.147Z" transform="translate(-368.891 -398.496)"/></g></g></svg>