<svg xmlns="http://www.w3.org/2000/svg" width="16.794" height="42.904" viewBox="0 0 16.794 42.904"><defs><style>.a{fill:#9c9c9c;}.b{fill:#838383;}.c{fill:#5a5a5a;}.d{fill:#eb5569;}.e{fill:#fec165;}.f{fill:#0ab69f;}.g{fill:#e53950;}.h{fill:#fdb441;}.i{fill:#01998d;}.j{fill:#444;}</style></defs><g transform="translate(0 0)"><path class="a" d="M232.732,370.113h-3.544a.518.518,0,0,1-.518-.518V357.654a.518.518,0,0,1,.518-.518h3.544a.518.518,0,0,1,.518.518V369.6A.518.518,0,0,1,232.732,370.113Z" transform="translate(-222.563 -327.209)"/><path class="b" d="M232.732,357.136h-3.544a.518.518,0,0,0-.518.518v9.408h4.58v-9.408A.518.518,0,0,0,232.732,357.136Z" transform="translate(-222.563 -327.209)"/><path class="c" d="M168.769,37.406h-9.161a3.817,3.817,0,0,1-3.817-3.817V3.817A3.817,3.817,0,0,1,159.609,0h9.161a3.817,3.817,0,0,1,3.817,3.817V33.589A3.817,3.817,0,0,1,168.769,37.406Z" transform="translate(-155.792 0)"/><circle class="d" cx="4.389" cy="4.389" r="4.389" transform="translate(4.008 2.951)"/><circle class="e" cx="4.389" cy="4.389" r="4.389" transform="translate(4.008 14.382)"/><circle class="f" cx="4.389" cy="4.389" r="4.389" transform="translate(4.008 25.676)"/><path class="g" d="M241.285,35.21a4.384,4.384,0,0,0-1.346.211,4.39,4.39,0,0,1,0,8.357,4.39,4.39,0,1,0,1.346-8.568Z" transform="translate(-232.888 -32.26)"/><path class="h" d="M241.285,171.625a4.382,4.382,0,0,0-1.346.211,4.39,4.39,0,0,1,0,8.357,4.39,4.39,0,1,0,1.346-8.568Z" transform="translate(-232.888 -157.243)"/><path class="i" d="M241.285,306.408a4.385,4.385,0,0,0-1.346.211,4.39,4.39,0,0,1,0,8.357,4.39,4.39,0,1,0,1.346-8.568Z" transform="translate(-232.888 -280.732)"/><circle class="d" cx="4.389" cy="4.389" r="4.389" transform="translate(4.008 2.951)"/><circle class="e" cx="4.389" cy="4.389" r="4.389" transform="translate(4.008 14.382)"/><circle class="f" cx="4.389" cy="4.389" r="4.389" transform="translate(4.008 25.676)"/><path class="g" d="M242.622,35.21a4.387,4.387,0,0,0-1.223.174,4.389,4.389,0,0,1,0,8.431,4.389,4.389,0,1,0,1.223-8.6Z" transform="translate(-234.225 -32.26)"/><path class="h" d="M242.622,171.625a4.386,4.386,0,0,0-1.223.174,4.389,4.389,0,0,1,0,8.431,4.389,4.389,0,1,0,1.223-8.6Z" transform="translate(-234.225 -157.243)"/><path class="i" d="M242.622,306.408a4.388,4.388,0,0,0-1.223.174,4.389,4.389,0,0,1,0,8.431,4.389,4.389,0,1,0,1.223-8.6Z" transform="translate(-234.225 -280.732)"/><path class="j" d="M273.2,0h-2.936a3.817,3.817,0,0,1,3.817,3.817V33.589a3.817,3.817,0,0,1-3.817,3.817H273.2a3.817,3.817,0,0,0,3.817-3.817V3.817A3.817,3.817,0,0,0,273.2,0Z" transform="translate(-260.225 0)"/></g></svg>