<svg id="Capa_1" enable-background="new 0 0 497 497" height="512" viewBox="0 0 497 497" width="512" xmlns="http://www.w3.org/2000/svg"><g><path d="m231.088 38.279h24.821v426.486h-24.821z" fill="#f9f8f9"/><path d="m248.908 38.28h17v426.48h-17z" fill="#e8e8e8"/><path d="m137.171 270.721h202.655c1.564 0 3.061-.539 4.15-1.494l29.086-25.511c2.177-1.91 2.177-4.946 0-6.856l-29.086-25.511c-1.089-.955-2.586-1.494-4.15-1.494h-202.655c-1.564 0-3.061.539-4.15 1.494l-29.086 25.511c-2.177 1.91-2.177 4.947 0 6.856l29.086 25.511c1.089.955 2.586 1.494 4.15 1.494z" fill="#aee4a4"/><path d="m393.058 243.72-29.08 25.51c-1.09.95-2.59 1.49-4.15 1.49h-30c1.56 0 3.06-.54 4.15-1.49l29.08-25.51c2.18-1.91 2.18-4.95 0-6.86l-29.08-25.51c-1.09-.96-2.59-1.5-4.15-1.5h30c1.56 0 3.06.54 4.15 1.5l29.08 25.51c2.18 1.91 2.18 4.95 0 6.86z" fill="#8bd5a7"/><path d="m277.379 475.47h-77.76c-5.523 0-10-4.477-10-10v-27.634c0-5.523 4.477-10 10-10h77.76c5.523 0 10 4.477 10 10v27.634c0 5.523-4.478 10-10 10z" fill="#a2abb8"/><path d="m307.378 437.84v27.63c0 5.52-4.48 10-10 10h-30c5.52 0 10-4.48 10-10v-27.63c0-5.53-4.48-10-10-10h30c5.52 0 10 4.47 10 10z" fill="#909ba6"/><path d="m440.462 497h-403.927c-10.556 0-19.113-8.557-19.113-19.113 0-10.556 8.557-19.113 19.113-19.113h403.927c10.556 0 19.114 8.557 19.114 19.113-.001 10.556-8.558 19.113-19.114 19.113z" fill="#b57f5f"/><path d="m479.578 477.89c0 5.27-2.14 10.05-5.6 13.51s-8.24 5.6-13.52 5.6h-30c5.28 0 10.06-2.14 13.52-5.6s5.6-8.24 5.6-13.51c0-10.56-8.56-19.12-19.12-19.12h30c10.56 0 19.12 8.56 19.12 19.12z" fill="#9f6e50"/><path d="m369.426 175.329h-232.769c-1.564 0-3.061-.539-4.15-1.494l-29.086-25.511c-2.177-1.91-2.177-4.946 0-6.856l29.086-25.511c1.089-.955 2.586-1.494 4.15-1.494h232.769c3.194 0 5.783 2.204 5.783 4.922v51.022c0 2.718-2.59 4.922-5.783 4.922z" fill="#b57f5f"/><path d="m395.208 119.38v51.03c0 2.72-2.59 4.92-5.78 4.92h-30c3.19 0 5.78-2.2 5.78-4.92v-51.03c0-2.71-2.59-4.92-5.78-4.92h30c3.19 0 5.78 2.21 5.78 4.92z" fill="#9f6e50"/><path d="m107.571 366.113h232.769c1.564 0 3.061-.539 4.15-1.494l29.086-25.511c2.177-1.91 2.177-4.946 0-6.856l-29.086-25.512c-1.089-.955-2.586-1.494-4.15-1.494h-232.769c-3.194 0-5.783 2.204-5.783 4.922v51.022c0 2.719 2.589 4.923 5.783 4.923z" fill="#b57f5f"/><path d="m393.578 339.11-29.09 25.51c-1.09.95-2.58 1.49-4.15 1.49h-30c1.57 0 3.06-.54 4.15-1.49l29.09-25.51c2.17-1.91 2.17-4.95 0-6.86l-29.09-25.51c-1.09-.96-2.58-1.49-4.15-1.49h30c1.57 0 3.06.53 4.15 1.49l29.09 25.51c2.17 1.91 2.17 4.95 0 6.86z" fill="#9f6e50"/><path d="m319.821 247.788h-142.645c-4.143 0-7.5-3.358-7.5-7.5s3.357-7.5 7.5-7.5h142.645c4.142 0 7.5 3.358 7.5 7.5s-3.358 7.5-7.5 7.5z" fill="#f9f8f9"/><path d="m285.778 38.279c0 21.141-16.138 37.279-37.279 37.279-4.751 0-9.3.134-13.498-1.448-14.481-5.458-24.782-19.442-24.782-35.832 0-16.388 10.299-30.371 24.777-35.83 4.199-1.582 8.75-1.448 13.502-1.448 21.141 0 37.28 16.138 37.28 37.279z" fill="#ffe187"/><path d="m286.778 38.28c0 21.14-17.14 38.28-38.28 38.28-4.75 0-9.3-.87-13.5-2.45 14.48-5.46 24.78-19.44 24.78-35.83s-10.3-30.37-24.78-35.83c4.2-1.58 8.75-2.45 13.5-2.45 21.14 0 38.28 17.14 38.28 38.28z" fill="#ffd271"/></g></svg>