<svg xmlns="http://www.w3.org/2000/svg" width="23.893" height="15.4" viewBox="0 0 23.893 15.4"><defs><style>.a{fill:#ffea80;}.b{fill:#ffcf40;}.c{fill:#f26178;}.d{fill:#d9415a;}.e{fill:#4d2e2e;}</style></defs><g transform="translate(0.001 -91)"><g transform="translate(2.846 93.8)"><path class="a" d="M81.346,163.6H63.1a.7.7,0,0,1-.7-.7.7.7,0,0,0-.7-.7.7.7,0,0,1-.7-.7v-1.4a.7.7,0,0,1,.7-.7H75.12a2.107,2.107,0,0,1,1.28-1.28V156.48a2.1,2.1,0,0,1,0-3.961v-.82a.7.7,0,0,1,.7-.7h4.247a.7.7,0,0,1,.313,1.326.868.868,0,0,0,0,1.548.7.7,0,0,1,0,1.252.868.868,0,0,0,0,1.548.7.7,0,0,1,0,1.252.868.868,0,0,0,0,1.548.7.7,0,0,1,0,1.252.868.868,0,0,0,0,1.548.7.7,0,0,1-.313,1.326Z" transform="translate(-61 -151)"/></g><path class="b" d="M267.56,155.126a.7.7,0,0,0,0-1.252.868.868,0,0,1,0-1.548.7.7,0,0,0-.313-1.326H263a.7.7,0,0,0-.7.7v.82a2.1,2.1,0,0,0,0,3.961v1.639a2.107,2.107,0,0,0-1.28,1.28H256v4.2h11.247a.7.7,0,0,0,.313-1.326.868.868,0,0,1,0-1.548.7.7,0,0,0,0-1.252.868.868,0,0,1,0-1.548.7.7,0,0,0,0-1.252.868.868,0,0,1,0-1.548Z" transform="translate(-244.054 -57.2)"/><g transform="translate(-0.001 91)"><path class="c" d="M18.946,96.6a.693.693,0,0,0,.7-.7V93.1a.693.693,0,0,0-.7-.7.693.693,0,0,1-.7-.7.693.693,0,0,0-.7-.7H5.646l-.7,2.8-.7-2.8H.7a.7.7,0,0,0-.308,1.33.861.861,0,0,1,0,1.54.7.7,0,0,0,0,1.26.861.861,0,0,1,0,1.54.7.7,0,0,0,0,1.26.861.861,0,0,1,0,1.54.7.7,0,0,0,0,1.26.861.861,0,0,1,0,1.54A.7.7,0,0,0,.7,103.6H4.246l.7-1.4.7,1.4h11.9a.693.693,0,0,0,.7-.7.693.693,0,0,1,.7-.7.693.693,0,0,0,.7-.7V98.7a.693.693,0,0,0-.7-.7.7.7,0,1,1,0-1.4Z" transform="translate(0.001 -91)"/></g><path class="d" d="M256,103.6h5.6a.693.693,0,0,0,.7-.7.693.693,0,0,1,.7-.7.693.693,0,0,0,.7-.7V98.7a.693.693,0,0,0-.7-.7.7.7,0,0,1,0-1.4.693.693,0,0,0,.7-.7V93.1a.693.693,0,0,0-.7-.7.693.693,0,0,1-.7-.7.693.693,0,0,0-.7-.7H256Z" transform="translate(-244.054)"/><g transform="translate(4.246 91)"><g transform="translate(0 0)"><path class="e" d="M92.4,91v2.8a.7.7,0,0,1-1.4,0V91Z" transform="translate(-91 -91)"/></g><g transform="translate(0 9.1)"><path class="e" d="M92.4,286.7v2.8H91v-2.8a.7.7,0,0,1,1.4,0Z" transform="translate(-91 -286)"/></g><g transform="translate(0 4.9)"><path class="e" d="M91.7,198.8a.7.7,0,0,1-.7-.7v-1.4a.7.7,0,0,1,1.4,0v1.4A.7.7,0,0,1,91.7,198.8Z" transform="translate(-91 -196)"/></g></g></g></svg>