<svg xmlns="http://www.w3.org/2000/svg" width="35.78" height="27.82" viewBox="0 0 35.78 27.82"><defs><style>.a{fill:#2e2e2e;}.b{fill:#1a1a1a;}.c{fill:#0b6e6d;}.d{fill:#31acab;}.e{fill:#a59792;}.f{fill:#fff4f4;}.g{fill:#f6efea;}</style></defs><g transform="translate(0 0)"><g transform="translate(12.795 0.335)"><path class="a" d="M181.853,36.356A.853.853,0,0,1,181,35.5V29.736a.853.853,0,0,1,1.707,0V35.5A.853.853,0,0,1,181.853,36.356Z" transform="translate(-181 -28.883)"/></g><g transform="translate(21.278 0.335)"><path class="b" d="M301.853,36.356A.853.853,0,0,1,301,35.5V29.736a.853.853,0,1,1,1.707,0V35.5A.853.853,0,0,1,301.853,36.356Z" transform="translate(-301 -28.883)"/></g><g transform="translate(0 0.335)"><path class="c" d="M34.732,150.142H1.048C.469,150.142,0,148.32,0,146.071S.469,142,1.048,142H34.732c.579,0,1.048,1.823,1.048,4.071S35.311,150.142,34.732,150.142Z" transform="translate(0 -142)"/></g><g transform="translate(25.52 1.522)"><path class="b" d="M361.853,56.6a.853.853,0,0,1-.853-.853V50.6a.853.853,0,0,1,1.707,0v5.148A.853.853,0,0,1,361.853,56.6Z" transform="translate(-361 -49.745)"/></g><g transform="translate(21.216 0.466)"><path class="b" d="M269.712,82H256v1.707h13.711a.853.853,0,0,0,0-1.707Z" transform="translate(-256.001 -79.109)"/><path class="d" d="M269.712,142H256v8.012h13.711c.471,0,.853-1.794.853-4.006S270.184,142,269.712,142Z" transform="translate(-256.001 -142)"/></g><path class="e" d="M420.7,23h-2.845a.853.853,0,0,0-.853.853V49.968a.853.853,0,0,0,.853.853H420.7a.853.853,0,0,0,.853-.853V23.854A.853.853,0,0,0,420.7,23Z" transform="translate(-386.625 -23.001)"/><path class="e" d="M18.7,23H15.853a.853.853,0,0,0-.853.853V49.968a.853.853,0,0,0,.853.853H18.7a.853.853,0,0,0,.853-.853V23.854A.853.853,0,0,0,18.7,23Z" transform="translate(-14.147 -23.001)"/><path class="f" d="M5.4,420H.853a.853.853,0,0,0-.853.853v3.527a.853.853,0,0,0,.853.853H5.4a.853.853,0,0,0,.853-.853v-3.527A.853.853,0,0,0,5.4,420Z" transform="translate(0 -397.414)"/><path class="g" d="M407.4,420h-4.551a.853.853,0,0,0-.853.853v3.527a.853.853,0,0,0,.853.853H407.4a.853.853,0,0,0,.853-.853v-3.527A.853.853,0,0,0,407.4,420Z" transform="translate(-372.478 -397.414)"/></g></svg>