<svg xmlns="http://www.w3.org/2000/svg" width="61.305" height="62.138" viewBox="0 0 61.305 62.138"><defs><style>.a{fill:#ddd;}</style></defs><g transform="translate(-252.481 -414.175)"><g transform="translate(252.481 436.513)"><g transform="translate(0)"><g transform="translate(0)"><path class="a" d="M246.777,4.317a.777.777,0,0,0,.777-.777V.777a.777.777,0,0,0-1.555,0V3.54A.777.777,0,0,0,246.777,4.317Z" transform="translate(-227.76)"/><path class="a" d="M342.13,34.957a.777.777,0,0,0,1.1-.077l1.934-2.225a.777.777,0,0,0-1.173-1.02l-1.934,2.225A.777.777,0,0,0,342.13,34.957Z" transform="translate(-316.172 -28.93)"/><path class="a" d="M413.389,123.094a.775.775,0,0,0,.387-.1l2.557-1.472a.777.777,0,1,0-.775-1.347L413,121.643a.777.777,0,0,0,.388,1.451Z" transform="translate(-381.419 -110.734)"/><path class="a" d="M446.38,235.933h-2.953a.777.777,0,1,0,0,1.555h2.953a.777.777,0,0,0,0-1.555Z" transform="translate(-409.124 -217.593)"/><path class="a" d="M127.381,34.881a.777.777,0,0,0,1.173-1.02l-1.934-2.225a.777.777,0,0,0-1.173,1.02Z" transform="translate(-116.402 -28.93)"/><path class="a" d="M46.877,121.517l2.557,1.472a.777.777,0,0,0,.775-1.347l-2.557-1.472a.777.777,0,0,0-.775,1.347Z" transform="translate(-43.757 -110.732)"/><path class="a" d="M15.868,236.71a.777.777,0,0,0-.777-.777H12.137a.777.777,0,0,0,0,1.555H15.09A.777.777,0,0,0,15.868,236.71Z" transform="translate(-11.36 -217.593)"/><path class="a" d="M82,105.626v-.979a3.03,3.03,0,0,0-2.542-2.986V88.889a11.708,11.708,0,0,0-11.7-11.7h-.034a11.708,11.708,0,0,0-11.7,11.7v12.772a3.03,3.03,0,0,0-2.542,2.986v.979a2.269,2.269,0,0,0-1.613,2.169v2.421a.777.777,0,0,0,.777.777H64.235a.777.777,0,1,0,0-1.555h-10.8V107.8a.711.711,0,0,1,.71-.71h27.2a.711.711,0,0,1,.71.71v1.643h-10.8a.777.777,0,0,0,0,1.555H82.839a.777.777,0,0,0,.777-.777V107.8A2.269,2.269,0,0,0,82,105.626ZM57.591,88.889A10.152,10.152,0,0,1,67.732,78.749h.034A10.152,10.152,0,0,1,77.907,88.889v12.733H69.981V95.841a4.243,4.243,0,0,0,1.962-3.579,4.194,4.194,0,0,0-8.389,0,4.243,4.243,0,0,0,1.962,3.579v5.782H57.591Zm9.033,5.789a2.706,2.706,0,0,1-1.516-2.416,2.64,2.64,0,0,1,5.28,0,2.707,2.707,0,0,1-1.516,2.416.777.777,0,0,0-.447.7v6.241H67.072V95.382a.777.777,0,0,0-.447-.7Zm-10.1,8.5H78.978a1.472,1.472,0,0,1,1.47,1.47v.883H55.05v-.883A1.472,1.472,0,0,1,56.52,103.177Z" transform="translate(-48.732 -71.193)"/><path class="a" d="M247.326,492.487a.777.777,0,1,0-.286.943A.782.782,0,0,0,247.326,492.487Z" transform="translate(-227.606 -453.761)"/></g></g></g><g transform="translate(290.143 423.247)"><g transform="translate(0)"><g transform="translate(0)"><path class="a" d="M246.483,2.684a.483.483,0,0,0,.483-.483V.483a.483.483,0,0,0-.966,0V2.2A.483.483,0,0,0,246.483,2.684Z" transform="translate(-234.662)"/><path class="a" d="M342.029,33.6a.483.483,0,0,0,.682-.048l1.2-1.383a.483.483,0,0,0-.729-.634l-1.2,1.383A.483.483,0,0,0,342.029,33.6Z" transform="translate(-325.893 -29.853)"/><path class="a" d="M413.094,121.949a.482.482,0,0,0,.241-.065l1.59-.915a.483.483,0,1,0-.482-.838l-1.59.915a.483.483,0,0,0,.241.9Z" transform="translate(-393.221 -114.265)"/><path class="a" d="M444.969,235.933h-1.836a.483.483,0,0,0,0,.966h1.836a.483.483,0,1,0,0-.966Z" transform="translate(-421.809 -224.532)"/><path class="a" d="M126.577,33.552a.483.483,0,0,0,.729-.634l-1.2-1.383a.483.483,0,0,0-.729.634Z" transform="translate(-119.752 -29.853)"/><path class="a" d="M46.73,120.967l1.59.915a.483.483,0,0,0,.482-.838l-1.59-.915a.483.483,0,0,0-.482.838Z" transform="translate(-44.79 -114.264)"/><path class="a" d="M14.162,236.416a.483.483,0,0,0-.483-.483H11.843a.483.483,0,0,0,0,.966h1.836A.483.483,0,0,0,14.162,236.416Z" transform="translate(-11.36 -224.532)"/><path class="a" d="M70.606,94.868V94.26a1.883,1.883,0,0,0-1.58-1.856V84.464a7.278,7.278,0,0,0-7.27-7.27h-.021a7.278,7.278,0,0,0-7.27,7.27V92.4a1.883,1.883,0,0,0-1.58,1.856v.608a1.41,1.41,0,0,0-1,1.348v1.5a.483.483,0,0,0,.483.483h7.2a.483.483,0,1,0,0-.966H52.848V96.216a.442.442,0,0,1,.441-.441H70.2a.442.442,0,0,1,.441.441v1.022H63.93a.483.483,0,1,0,0,.966h7.2a.483.483,0,0,0,.483-.483v-1.5A1.41,1.41,0,0,0,70.606,94.868Zm-15.175-10.4a6.311,6.311,0,0,1,6.3-6.3h.021a6.311,6.311,0,0,1,6.3,6.3v7.915H63.133V88.785a2.638,2.638,0,0,0,1.22-2.224,2.607,2.607,0,0,0-5.215,0,2.638,2.638,0,0,0,1.22,2.224v3.594H55.431Zm5.615,3.6a1.682,1.682,0,0,1-.942-1.5,1.641,1.641,0,0,1,3.282,0,1.682,1.682,0,0,1-.942,1.5.483.483,0,0,0-.278.437v3.879h-.842V88.5a.483.483,0,0,0-.278-.437Zm-6.281,5.283h13.96a.915.915,0,0,1,.914.914v.549H53.851V94.26A.915.915,0,0,1,54.765,93.346Z" transform="translate(-49.924 -73.464)"/><path class="a" d="M246.761,492.305a.483.483,0,1,0-.178.586A.486.486,0,0,0,246.761,492.305Z" transform="translate(-234.502 -468.233)"/></g></g></g><g transform="translate(259.677 414.175)"><g transform="translate(0)"><g transform="translate(0)"><path class="a" d="M246.3,1.645a.3.3,0,0,0,.3-.3V.3A.3.3,0,1,0,246,.3V1.349A.3.3,0,0,0,246.3,1.645Z" transform="translate(-239.049)"/><path class="a" d="M341.965,32.736a.3.3,0,0,0,.418-.029l.737-.848a.3.3,0,0,0-.447-.389l-.737.848A.3.3,0,0,0,341.965,32.736Z" transform="translate(-332.072 -30.439)"/><path class="a" d="M412.907,121.22a.3.3,0,0,0,.147-.04l.975-.561a.3.3,0,0,0-.3-.514l-.975.561a.3.3,0,0,0,.148.553Z" transform="translate(-400.724 -116.51)"/><path class="a" d="M444.072,235.933h-1.125a.3.3,0,1,0,0,.592h1.125a.3.3,0,0,0,0-.592Z" transform="translate(-429.874 -228.944)"/><path class="a" d="M126.066,32.707a.3.3,0,0,0,.447-.389l-.737-.848a.3.3,0,0,0-.447.389Z" transform="translate(-121.882 -30.44)"/><path class="a" d="M46.636,120.618l.975.561a.3.3,0,1,0,.3-.513l-.975-.561a.3.3,0,0,0-.3.514Z" transform="translate(-45.447 -116.508)"/><path class="a" d="M13.078,236.229a.3.3,0,0,0-.3-.3H11.656a.3.3,0,1,0,0,.592h1.125A.3.3,0,0,0,13.078,236.229Z" transform="translate(-11.36 -228.944)"/><path class="a" d="M63.361,88.029v-.373a1.155,1.155,0,0,0-.969-1.138V81.651a4.462,4.462,0,0,0-4.457-4.457h-.013a4.462,4.462,0,0,0-4.457,4.457v4.867a1.155,1.155,0,0,0-.969,1.138v.373a.865.865,0,0,0-.615.827v.923a.3.3,0,0,0,.3.3H56.59a.3.3,0,1,0,0-.592H52.474v-.626a.271.271,0,0,1,.271-.271H63.113a.271.271,0,0,1,.271.271v.626H59.268a.3.3,0,1,0,0,.592h4.411a.3.3,0,0,0,.3-.3v-.923a.865.865,0,0,0-.615-.827Zm-9.3-6.378a3.869,3.869,0,0,1,3.864-3.864h.013A3.869,3.869,0,0,1,61.8,81.651V86.5h-3.02V84.3a1.617,1.617,0,0,0,.748-1.364,1.6,1.6,0,0,0-3.2,0,1.617,1.617,0,0,0,.748,1.364v2.2h-3.02ZM57.5,83.857a1.031,1.031,0,0,1-.578-.921,1.006,1.006,0,0,1,2.012,0,1.031,1.031,0,0,1-.578.921.3.3,0,0,0-.17.268V86.5h-.516V84.125A.3.3,0,0,0,57.5,83.857ZM53.65,87.1h8.558a.561.561,0,0,1,.56.56v.336H53.089v-.336A.561.561,0,0,1,53.65,87.1Z" transform="translate(-50.682 -74.907)"/><path class="a" d="M246.4,492.19a.3.3,0,1,0-.109.359A.3.3,0,0,0,246.4,492.19Z" transform="translate(-238.886 -477.432)"/></g></g></g></g></svg>