<svg xmlns="http://www.w3.org/2000/svg" width="90.106" height="70.061" viewBox="0 0 90.106 70.061"><defs><style>.a{fill:#2e2e2e;}.b{fill:#1a1a1a;}.c{fill:#0b6e6d;}.d{fill:#31acab;}.e{fill:#2f3142;}.f{fill:#fff4f4;}.g{fill:#f6efea;}.h{fill:#5b6262;}</style></defs><g transform="translate(0 -1.215)"><g transform="translate(32.222 2.057)"><path class="a" d="M183.149,47.7A2.149,2.149,0,0,1,181,45.552V31.032a2.149,2.149,0,0,1,4.3,0v14.52A2.149,2.149,0,0,1,183.149,47.7Z" transform="translate(-181 -28.883)"/></g><g transform="translate(53.585 2.057)"><path class="b" d="M303.149,47.7A2.149,2.149,0,0,1,301,45.552V31.032a2.149,2.149,0,0,1,4.3,0v14.52A2.149,2.149,0,0,1,303.149,47.7Z" transform="translate(-301 -28.883)"/></g><g transform="translate(0 2.057)"><path class="c" d="M87.466,162.5H2.64c-1.458,0-2.64-4.59-2.64-10.252S1.182,142,2.64,142H87.466c1.458,0,2.64,4.591,2.64,10.253S88.924,162.5,87.466,162.5Z" transform="translate(0 -142)"/></g><g transform="translate(64.266 5.046)"><path class="b" d="M363.149,67.007A2.149,2.149,0,0,1,361,64.858V51.894a2.149,2.149,0,0,1,4.3,0V64.858A2.149,2.149,0,0,1,363.149,67.007Z" transform="translate(-361 -49.745)"/></g><g transform="translate(53.428 2.387)"><path class="b" d="M290.53,82H256v4.3H290.53a2.149,2.149,0,0,0,0-4.3Z" transform="translate(-256.001 -74.719)"/><path class="d" d="M290.53,142H256v20.175H290.53c1.187,0,2.149-4.517,2.149-10.088S291.717,142,290.53,142Z" transform="translate(-256.001 -142)"/></g><path class="e" d="M426.313,23h-7.164A2.149,2.149,0,0,0,417,25.15V90.912a2.149,2.149,0,0,0,2.149,2.149h7.164a2.149,2.149,0,0,0,2.149-2.149V25.15A2.149,2.149,0,0,0,426.313,23Z" transform="translate(-340.505 -21.786)"/><path class="e" d="M24.313,23H17.149A2.149,2.149,0,0,0,15,25.15V90.912a2.149,2.149,0,0,0,2.149,2.149h7.164a2.149,2.149,0,0,0,2.149-2.149V25.15A2.149,2.149,0,0,0,24.313,23Z" transform="translate(-12.851 -21.786)"/><path class="f" d="M13.611,420H2.149A2.149,2.149,0,0,0,0,422.15v8.883a2.149,2.149,0,0,0,2.149,2.149H13.611a2.149,2.149,0,0,0,2.149-2.149V422.15A2.149,2.149,0,0,0,13.611,420Z" transform="translate(0 -361.907)"/><path class="g" d="M415.611,420H404.149A2.149,2.149,0,0,0,402,422.15v8.883a2.149,2.149,0,0,0,2.149,2.149h11.462a2.149,2.149,0,0,0,2.149-2.149V422.15A2.149,2.149,0,0,0,415.611,420Z" transform="translate(-327.655 -361.907)"/><g transform="translate(0 2.057)"><path class="h" d="M87.466,162.5H2.64c-1.458,0-2.64-4.59-2.64-10.252S1.182,142,2.64,142H87.466c1.458,0,2.64,4.591,2.64,10.253S88.924,162.5,87.466,162.5Z" transform="translate(0 -142)"/></g><g transform="translate(53.428 2.387)"><path class="h" d="M290.53,82H256v4.3H290.53a2.149,2.149,0,0,0,0-4.3Z" transform="translate(-256.001 -74.719)"/><path class="h" d="M290.53,142H256v20.175H290.53c1.187,0,2.149-4.517,2.149-10.088S291.717,142,290.53,142Z" transform="translate(-256.001 -142)"/></g><path class="g" d="M438.336,420h-30.6c-3.168,0-5.737.962-5.737,2.149v8.883c0,1.187,2.569,2.149,5.737,2.149h30.6c3.168,0,5.737-.962,5.737-2.149V422.15C444.073,420.963,441.5,420,438.336,420Z" transform="translate(-377.657 -415.125)"/></g></svg>