<svg xmlns="http://www.w3.org/2000/svg" width="28.341" height="29.353" viewBox="0 0 28.341 29.353"><defs><style>.a{fill:#556080;}.b{fill:#28384c;}.c{fill:#dd352e;}.d{fill:#23a24d;}.e{fill:#ebba16;}.f{fill:#41566d;}.g{fill:#7383bf;}.h{fill:#b02721;}.i{fill:#c69817;}.j{fill:#187f38;}</style></defs><g transform="translate(0 0)"><g transform="translate(2.53 5.061)"><rect class="a" width="6.073" height="2.024" transform="translate(0 14.17)"/><rect class="a" width="6.073" height="2.024" transform="translate(0)"/></g><path class="b" d="M163.226,26.316H151.083a1.014,1.014,0,0,1-1.014-1.014V1.014A1.014,1.014,0,0,1,151.083,0h12.143a1.014,1.014,0,0,1,1.014,1.014V25.3A1.014,1.014,0,0,1,163.226,26.316Z" transform="translate(-141.972 0)"/><circle class="c" cx="3.037" cy="3.037" r="3.037" transform="translate(12.146 2.025)"/><circle class="d" cx="3.037" cy="3.037" r="3.037" transform="translate(12.146 18.219)"/><circle class="e" cx="3.037" cy="3.037" r="3.037" transform="translate(12.146 10.122)"/><g transform="translate(22.268 3.543)"><path class="f" d="M403.313,61.793a3.035,3.035,0,0,1-3.037,3.037h-.506a2.529,2.529,0,0,0-2.53,2.53V61.793Z" transform="translate(-397.24 -61.793)"/><path class="f" d="M403.313,203.034a3.035,3.035,0,0,1-3.037,3.037h-.506a2.529,2.529,0,0,0-2.53,2.53v-5.567h6.073Z" transform="translate(-397.24 -194.937)"/><path class="f" d="M403.313,344.276a3.035,3.035,0,0,1-3.037,3.037h-.506a2.529,2.529,0,0,0-2.53,2.531v-5.567Z" transform="translate(-397.24 -328.081)"/></g><rect class="g" width="3.037" height="29.353" transform="translate(0 0)"/><path class="h" d="M238.85,55.5a.506.506,0,0,1-.506-.506,2.026,2.026,0,0,1,2.024-2.024.506.506,0,1,1,0,1.012,1.013,1.013,0,0,0-1.012,1.012A.506.506,0,0,1,238.85,55.5Z" transform="translate(-225.186 -49.928)"/><path class="i" d="M238.85,196.737a.506.506,0,0,1-.506-.506,2.026,2.026,0,0,1,2.024-2.024.506.506,0,1,1,0,1.012,1.013,1.013,0,0,0-1.012,1.012A.506.506,0,0,1,238.85,196.737Z" transform="translate(-225.186 -183.073)"/><path class="j" d="M238.85,337.978a.506.506,0,0,1-.506-.506,2.026,2.026,0,0,1,2.024-2.024.506.506,0,1,1,0,1.012,1.013,1.013,0,0,0-1.012,1.012A.506.506,0,0,1,238.85,337.978Z" transform="translate(-225.186 -316.217)"/></g></svg>