<svg xmlns="http://www.w3.org/2000/svg" width="35.891" height="31.224" viewBox="0 0 35.891 31.224"><defs><style>.a{fill:#17ace8;}.b{fill:#0d70b2;}.c{fill:#fedb41;}.d{fill:#00ddc1;}.e{fill:#e1e4fb;}.f{fill:#c5c9f7;}</style></defs><g transform="translate(0 0)"><path class="a" d="M0,0H22.863V3.446a2.306,2.306,0,0,1-2.306,2.306H2.306A2.306,2.306,0,0,1,0,3.446V0Z" transform="matrix(0.866, 0.5, -0.5, 0.866, 7.667, 6.481)"/><path class="b" d="M2.306,0H28.27V7.484H0V2.306A2.306,2.306,0,0,1,2.306,0Z" transform="matrix(0.866, 0.5, -0.5, 0.866, 11.409, 0)"/><path class="c" d="M90.642,73.5a2.345,2.345,0,0,1-.165.244l.018.012a3.742,3.742,0,0,0,5.112-1.37l-3.241-1.871Z" transform="translate(-64.898 -52.605)"/><path class="d" d="M103.731,57.9a1.436,1.436,0,1,0,1.96-.526A1.436,1.436,0,0,0,103.731,57.9Z" transform="translate(-74.194 -43.116)"/><path class="e" d="M33.174,45.151a.5.5,0,0,1-.252-.068L28.787,42.7a.5.5,0,1,1,.5-.874l4.134,2.387a.5.5,0,0,1-.253.942Z" transform="translate(-20.813 -32.133)"/><path class="b" d="M1.75,57.373H3.263a1.73,1.73,0,0,1,1.73,1.73V72.743a1.73,1.73,0,0,1-1.73,1.73H1.75Z" transform="translate(-1.75 -43.249)"/><path class="f" d="M13,67.381h3.243V77.759H13Z" transform="translate(-9.757 -50.372)"/><path class="e" d="M32.7,68.467,31.246,70.95a2.316,2.316,0,0,1-1.989,1.14H24.25v3.459h5.006A5.788,5.788,0,0,0,34.229,72.7L35.7,70.2Z" transform="translate(-17.764 -51.145)"/></g></svg>