<svg xmlns="http://www.w3.org/2000/svg" width="23.416" height="22.062" viewBox="0 0 23.416 22.062"><defs><style>.a{fill:#495a79;}.b{fill:#42516d;}.c{fill:#ffde33;}.d{fill:#ffbc33;}</style></defs><path class="a" d="M22.934,31.676l-8.276-15.2a3.436,3.436,0,0,0-5.9,0L.482,31.676a3.426,3.426,0,0,0-.027,3.458,3.385,3.385,0,0,0,2.977,1.729H19.984a3.385,3.385,0,0,0,2.977-1.729A3.426,3.426,0,0,0,22.934,31.676Z" transform="translate(0 -14.8)"/><path class="b" d="M267.253,35.134a3.385,3.385,0,0,1-2.977,1.729H256V14.8a3.425,3.425,0,0,1,2.95,1.674l8.276,15.2A3.426,3.426,0,0,1,267.253,35.134Z" transform="translate(-244.292 -14.8)"/><path class="c" d="M50.384,61,42.108,45.8a2.065,2.065,0,0,0-3.54,0L30.292,61a2.067,2.067,0,0,0,1.77,3.115H48.614A2.067,2.067,0,0,0,50.384,61Z" transform="translate(-28.63 -43.428)"/><path class="d" d="M266.06,63.076a2.025,2.025,0,0,1-1.784,1.043H256V44.8a2.038,2.038,0,0,1,1.77,1L266.046,61A2.038,2.038,0,0,1,266.06,63.076Z" transform="translate(-244.292 -43.428)"/><g transform="translate(10.336 5.598)"><path class="a" d="M227.372,379.944a1.372,1.372,0,1,1,1.372-1.372A1.374,1.374,0,0,1,227.372,379.944Z" transform="translate(-226 -366.224)"/><path class="a" d="M228.744,145.432a1.372,1.372,0,1,1-2.744,0v-6.86a1.372,1.372,0,1,1,2.744,0Z" transform="translate(-226 -137.2)"/></g><g transform="translate(11.708 5.598)"><path class="b" d="M257.372,378.572A1.374,1.374,0,0,0,256,377.2v2.744A1.374,1.374,0,0,0,257.372,378.572Z" transform="translate(-256 -366.224)"/><path class="b" d="M257.372,145.432v-6.86A1.374,1.374,0,0,0,256,137.2v9.6A1.374,1.374,0,0,0,257.372,145.432Z" transform="translate(-256 -137.2)"/></g></svg>