<svg xmlns="http://www.w3.org/2000/svg" xmlns:xlink="http://www.w3.org/1999/xlink" width="98.133" height="85.745" viewBox="0 0 98.133 85.745"><defs><style>.a,.f{fill:none;}.a{stroke:#00d764;stroke-width:0.802px;stroke-dasharray:2.406 2.406;}.b{fill:url(#a);}.c{fill:#3e47dd;}.d{fill:#fbc67a;}.e{stroke:none;}</style><linearGradient id="a" x1="0.5" x2="0.5" y2="1" gradientUnits="objectBoundingBox"><stop offset="0" stop-color="#00d764"/><stop offset="1" stop-color="#2698ea"/></linearGradient></defs><g transform="translate(1.133 0.872)"><g transform="translate(0 0.262)"><g class="a" transform="matrix(0.707, -0.707, 0.707, 0.707, 0, 41.738)"><rect class="e" width="59" height="59" rx="17.627"/><rect class="f" x="-0.401" y="-0.401" width="59.802" height="59.802" rx="18.027"/></g><rect class="b" width="48" height="48" rx="14.323" transform="matrix(0.707, -0.707, 0.707, 0.707, 8, 41.738)"/><g transform="translate(25.898 -6.293)"><path class="c" d="M170.563,38.264a.82.82,0,0,0,.82-.82V35.794a.82.82,0,1,0-1.64,0v1.651A.82.82,0,0,0,170.563,38.264Z" transform="translate(-160.466)"/><path class="c" d="M2.659,133.905l-1.43-.825a.82.82,0,0,0-.82,1.42l1.43.825a.82.82,0,0,0,.82-1.42Z" transform="translate(0 -92.64)"/><path class="c" d="M1.84,313.978.41,314.8a.82.82,0,0,0,.82,1.42l1.43-.825a.82.82,0,1,0-.82-1.42Z" transform="translate(0 -263.651)"/><path class="c" d="M314.552,135.325l1.43-.825a.82.82,0,0,0-.82-1.42l-1.43.825a.82.82,0,0,0,.82,1.42Z" transform="translate(-296.198 -92.64)"/><path class="c" d="M83.006,133.7a6.163,6.163,0,0,0-5.719-3.842,6.557,6.557,0,1,0-9.509,8.206,4.627,4.627,0,0,0,3.9,7.1c12.9-.013,12.193.033,12.418-.037A5.739,5.739,0,0,0,83.006,133.7Zm-16.624-1.164a4.917,4.917,0,0,1,9.193-2.43,6.149,6.149,0,0,0-4.418,5.838,4.54,4.54,0,0,0-2.243.891A4.922,4.922,0,0,1,66.383,132.531ZM83.788,143.5c-.292.024-7.731.01-12.108.014a2.987,2.987,0,0,1-2.009-5.187,2.951,2.951,0,0,1,2.284-.765.82.82,0,0,0,.886-.93,4.509,4.509,0,0,1,8.816-1.818.82.82,0,0,0,.957.588,4.1,4.1,0,1,1,1.174,8.1Z" transform="translate(-61.205 -86.026)"/></g></g><g transform="translate(3)"><path class="d" d="M1.965,1.554a3.351,3.351,0,0,1,4.069,0l.108.082A3.351,3.351,0,0,1,7.31,5.289L7.2,5.638A3.351,3.351,0,0,1,4,8H4A3.351,3.351,0,0,1,.8,5.638L.69,5.289A3.351,3.351,0,0,1,1.858,1.637Z" transform="translate(86 38)"/><path class="d" d="M1.474,1.166a2.514,2.514,0,0,1,3.052,0l.081.062a2.514,2.514,0,0,1,.876,2.74L5.4,4.229A2.514,2.514,0,0,1,3,6H3A2.514,2.514,0,0,1,.6,4.229L.518,3.967a2.514,2.514,0,0,1,.876-2.74Z" transform="translate(65 68)"/><path class="d" d="M1.965,1.554a3.351,3.351,0,0,1,4.069,0l.108.082A3.351,3.351,0,0,1,7.31,5.289L7.2,5.638A3.351,3.351,0,0,1,4,8H4A3.351,3.351,0,0,1,.8,5.638L.69,5.289A3.351,3.351,0,0,1,1.858,1.637Z" transform="translate(0 68)"/><path class="d" d="M1.965,1.554a3.351,3.351,0,0,1,4.069,0l.108.082A3.351,3.351,0,0,1,7.31,5.289L7.2,5.638A3.351,3.351,0,0,1,4,8H4A3.351,3.351,0,0,1,.8,5.638L.69,5.289A3.351,3.351,0,0,1,1.858,1.637Z" transform="translate(2 9)"/><path class="d" d="M1.965,1.554a3.351,3.351,0,0,1,4.069,0l.108.082A3.351,3.351,0,0,1,7.31,5.289L7.2,5.638A3.351,3.351,0,0,1,4,8H4A3.351,3.351,0,0,1,.8,5.638L.69,5.289A3.351,3.351,0,0,1,1.858,1.637Z" transform="translate(65)"/></g></g></svg>