<svg xmlns="http://www.w3.org/2000/svg" width="19.679" height="20.691" viewBox="0 0 19.679 20.691"><defs><style>.a{fill:#665e68;}.b{fill:#554e56;}.c{fill:#dfebfa;}.d{fill:#ffd301;}.e{fill:#ffc20c;}</style></defs><path class="a" d="M65.046,8.239c-8.939-3.055-2.912-6.714.122-8.157A.043.043,0,0,0,65.15,0H62.986a2.259,2.259,0,0,0-.993.232C58.556,1.912,51.626,6,57.225,9.426c6.42,3.931-.463,9.063-4.065,11.265H67.283C69.172,18,73.086,10.986,65.046,8.239Z" transform="translate(-51.518 0)"/><path class="b" d="M53.16,20.691h3.1c3.7-2.551,9.364-7.6,3.349-11.525C54.591,5.89,59.647,2.049,63.223,0h-.237a2.259,2.259,0,0,0-.993.232C58.556,1.912,51.626,6,57.225,9.426,63.644,13.357,56.762,18.49,53.16,20.691Z" transform="translate(-51.518 0)"/><g transform="translate(7.983 2.126)"><path class="c" d="M210.376,53.359a.313.313,0,0,1-.172-.574c.138-.091.225-.14.229-.142a.312.312,0,0,1,.31.543s-.076.044-.2.122A.311.311,0,0,1,210.376,53.359Z" transform="translate(-210.064 -52.602)"/></g><g transform="translate(5.779 3.351)"><path class="c" d="M284,418.058a.312.312,0,0,1-.229-.525c.114-.123.225-.247.33-.371a.312.312,0,0,1,.476.405c-.111.13-.228.261-.347.391A.312.312,0,0,1,284,418.058Z" transform="translate(-278.51 -403.549)"/><path class="c" d="M316.777,372.852a.313.313,0,0,1-.271-.468c.083-.144.159-.288.226-.43a.312.312,0,1,1,.564.27c-.074.155-.158.314-.248.471A.312.312,0,0,1,316.777,372.852Z" transform="translate(-309.961 -360.103)"/><path class="c" d="M334.165,320.2h-.025a.312.312,0,0,1-.287-.336c.007-.084.01-.169.01-.252s0-.141-.007-.21a.313.313,0,0,1,.623-.044c.006.084.009.169.009.254s0,.2-.012.3A.312.312,0,0,1,334.165,320.2Z" transform="translate(-326.645 -309.523)"/><path class="c" d="M313.369,270.862a.312.312,0,0,1-.261-.14,3.788,3.788,0,0,0-.284-.374.312.312,0,0,1,.474-.407,4.411,4.411,0,0,1,.331.436.313.313,0,0,1-.26.485Z" transform="translate(-306.395 -262.278)"/><path class="c" d="M270.806,237.179a.311.311,0,0,1-.169-.05c-.133-.086-.274-.171-.42-.253a.312.312,0,0,1,.308-.544c.156.088.308.18.451.272a.313.313,0,0,1-.17.575Z" transform="translate(-265.429 -230.093)"/><path class="c" d="M222.066,212.673a.312.312,0,0,1-.141-.034c-.158-.08-.313-.162-.46-.244a.312.312,0,1,1,.3-.546c.14.078.288.156.439.233a.313.313,0,0,1-.142.591Z" transform="translate(-218.646 -206.601)"/><path class="c" d="M178.1,180.7a.311.311,0,0,1-.2-.075c-.141-.121-.274-.244-.393-.368a.312.312,0,1,1,.449-.435c.106.109.223.219.35.327a.312.312,0,0,1-.2.55Z" transform="translate(-176.528 -175.816)"/><path class="c" d="M155.877,132.513a.313.313,0,0,1-.305-.248,2.485,2.485,0,0,1-.054-.512q0-.033,0-.067a.312.312,0,1,1,.625.017c0,.016,0,.033,0,.049a1.859,1.859,0,0,0,.04.383.313.313,0,0,1-.306.377Z" transform="translate(-155.518 -129.425)"/><path class="c" d="M170.459,83.946a.313.313,0,0,1-.253-.5,5.068,5.068,0,0,1,.342-.421.312.312,0,0,1,.464.419,4.459,4.459,0,0,0-.3.369A.312.312,0,0,1,170.459,83.946Z" transform="translate(-169.556 -82.926)"/></g><g transform="translate(9.527 18.406)"><path class="c" d="M248.581,456.235a.313.313,0,0,1-.189-.561s.069-.053.185-.148a.312.312,0,1,1,.4.482c-.127.1-.2.162-.205.164A.311.311,0,0,1,248.581,456.235Z" transform="translate(-248.268 -455.454)"/></g><path class="d" d="M231.583,7.49c-8.519-2.633-3.6-5.631-.45-7.175A.168.168,0,0,0,231.073,0h-.117c-2.967,1.382-9.409,5.125-.3,8.239C238.7,10.986,234.786,18,232.9,20.691h1.6a1.077,1.077,0,0,0,.958-.633C237.27,16.322,238.964,9.771,231.583,7.49Z" transform="translate(-217.34 0)"/><g transform="translate(0 1.982)"><path class="e" d="M18.32,56.491c-4.139-2.534-1.513-5.429,1.569-7.444-3.448,1.934-7.4,5.112-2.767,7.95,5.43,3.324-.266,7.509-4.415,10.052a.385.385,0,0,0,.166.707h1.383C17.857,65.555,24.74,60.422,18.32,56.491Z" transform="translate(-12.53 -49.047)"/></g></svg>