<svg id="Layer_2" enable-background="new 0 0 512 512" height="512" viewBox="0 0 512 512" width="512" xmlns="http://www.w3.org/2000/svg"><g><g><path d="m502 10h-172v126h12v26l27.871-26h132.129z" fill="#80d6fb"/></g><g><path d="m106 286h300v216h-300z" fill="#6e83b7"/></g><g><path d="m96 256h320v30h-320z" fill="#6e83b7"/></g><g><path d="m106 286h300v10h-300z" fill="#466089"/></g><g><g><path d="m256 256h108.715v-33.193c0-21.622-14.655-40.494-35.602-45.849l-49.451-12.642h-23.662-23.662l-49.451 12.642c-20.948 5.355-35.602 24.227-35.602 45.849v33.193z" fill="#ffb0aa"/></g><g><path d="m256 200.769c19.01 0 34.659-14.63 36.301-33.221l-12.639-3.231h-23.662-23.662l-12.639 3.231c1.642 18.591 17.291 33.221 36.301 33.221z" fill="#ff7b7b"/></g><g><path d="m232.338 134.9v29.417c0 13.068 10.594 23.662 23.662 23.662 13.068 0 23.662-10.594 23.662-23.662v-29.417z" fill="#ffd3b3"/></g><g><path d="m232.338 154.808c7.233 3.232 15.241 5.032 23.662 5.032s16.428-1.8 23.662-5.032v-19.908h-47.323v19.908z" fill="#fcb98b"/></g><g><path d="m305.242 50.141v51.505c0 27.195-22.046 49.242-49.242 49.242-27.195 0-49.242-22.046-49.242-49.242v-51.505h49.242z" fill="#ffd3b3"/></g><g><path d="m308.032 100.367h-2.79v-32.615h2.79c5.523 0 10 4.477 10 10v12.615c0 5.522-4.477 10-10 10z" fill="#ffd3b3"/></g><g><path d="m203.968 100.367h2.79v-32.615h-2.79c-5.523 0-10 4.477-10 10v12.615c0 5.522 4.477 10 10 10z" fill="#ffd3b3"/></g><g><path d="m280.252 55.601s-.252 22.383 12.839 22.383l12.151 15.348v-25.58-20.956c0-12.932-10.484-23.416-23.416-23.416h-1.574c0-7.39-5.991-13.38-13.38-13.38h-19.972c-22.169 0-40.141 17.972-40.141 40.141v17.611 25.58l12.151-15.348c54.09 0 61.342-22.383 61.342-22.383z" fill="#6e83b7"/></g><g><path d="m312.671 236h12v20h-12z" fill="#ff7b7b"/></g><g><path d="m187.329 236h12v20h-12z" fill="#ff7b7b"/></g></g><g><path d="m310.833 353.75-11.083-14.583c-4.667 4.667-11.667 4.667-11.667 4.667-22.75-.001-32.083-12.834-32.083-12.834s-9.333 12.833-32.083 12.833c0 0-7 0-11.667-4.667l-11.083 14.583c11.083 7.583 14 19.833 14 25.667 0 14.583-7 21.583-7 36.75 0 34.417 47.833 40.834 47.833 40.834s47.833-6.417 47.833-40.833c0-15.167-7-22.167-7-36.75 0-5.834 2.917-18.084 14-25.667z" fill="#ffe352"/></g><g><g><path d="m416 35c-39.769 0-66 38-66 38s26.231 38 66 38 66-38 66-38-26.231-38-66-38z" fill="#edeff1"/></g><g><circle cx="416" cy="73" fill="#6e83b7" r="25"/></g><g><circle cx="416" cy="73" fill="#466089" r="11"/></g></g></g></svg>