<svg xmlns="http://www.w3.org/2000/svg" viewBox="0 0 128 128" width="128" height="128">
  <defs>
    <linearGradient id="liveChatGrad" x1="0" y1="0" x2="1" y2="1">
      <stop offset="0%" stop-color="#9b59b6"/>
      <stop offset="100%" stop-color="#663399"/>
    </linearGradient>
  </defs>
  <rect x="16" y="22" width="72" height="54" rx="12" fill="url(#liveChatGrad)"/>
  <path fill="#fff" d="M34 42h36v6H34zm0 12h24v6H34z" opacity="0.92"/>
  <path fill="url(#liveChatGrad)" d="M48 82c0 10 16 24 34 24 5 0 9-1 13-3l16 8-5-16c4-4 6-9 6-14 0-16-18-28-36-28S48 66 48 82z"/>
  <circle cx="70" cy="84" r="4" fill="#fff"/>
  <circle cx="84" cy="84" r="4" fill="#fff"/>
  <circle cx="98" cy="84" r="4" fill="#fff"/>
</svg>
